<?xml version="1.0" encoding="UTF-8" standalone="no"?>
<!DOCTYPE svg PUBLIC "-//W3C//DTD SVG 1.1//EN"
 "http://www.w3.org/Graphics/SVG/1.1/DTD/svg11.dtd">
<!-- Generated by graphviz version 10.0.1 (20240210.2158)
 -->
<!-- Title: G Pages: 1 -->
<svg width="5775pt" height="620pt"
 viewBox="0.00 0.00 5774.75 620.00" xmlns="http://www.w3.org/2000/svg" xmlns:xlink="http://www.w3.org/1999/xlink">
<g id="graph0" class="graph" transform="scale(1 1) rotate(0) translate(4 616)">
<title>G</title>
<polygon fill="white" stroke="none" points="-4,4 -4,-616 5770.75,-616 5770.75,4 -4,4"/>
<!-- :app -->
<g id="node1" class="node">
<title>:app</title>
<ellipse fill="none" stroke="black" cx="2684" cy="-594" rx="27" ry="18"/>
<text text-anchor="middle" x="2684" y="-588.95" font-family="Times,serif" font-size="14.00">:app</text>
</g>
<!-- :screen:attributions -->
<g id="node2" class="node">
<title>:screen:attributions</title>
<ellipse fill="none" stroke="black" cx="607" cy="-378" rx="81.55" ry="18"/>
<text text-anchor="middle" x="607" y="-372.95" font-family="Times,serif" font-size="14.00">:screen:attributions</text>
</g>
<!-- :app&#45;&gt;:screen:attributions -->
<g id="edge1" class="edge">
<title>:app&#45;&gt;:screen:attributions</title>
<path fill="none" stroke="black" d="M2656.69,-592.84C2448.83,-591.55 1119.96,-581.66 947,-540 828.15,-511.37 701.34,-438.54 641.74,-401.45"/>
<polygon fill="black" stroke="black" points="643.7,-398.54 633.37,-396.19 639.98,-404.47 643.7,-398.54"/>
</g>
<!-- :screen:balance -->
<g id="node3" class="node">
<title>:screen:balance</title>
<ellipse fill="none" stroke="black" cx="1614" cy="-450" rx="67.73" ry="18"/>
<text text-anchor="middle" x="1614" y="-444.95" font-family="Times,serif" font-size="14.00">:screen:balance</text>
</g>
<!-- :app&#45;&gt;:screen:balance -->
<g id="edge2" class="edge">
<title>:app&#45;&gt;:screen:balance</title>
<path fill="none" stroke="black" d="M2656.81,-592.76C2506.93,-591.26 1785.07,-581.93 1696,-540 1667.61,-526.64 1644.44,-498.57 1630.06,-477.51"/>
<polygon fill="black" stroke="black" points="1633.14,-475.83 1624.73,-469.38 1627.28,-479.67 1633.14,-475.83"/>
</g>
<!-- :screen:budgets -->
<g id="node4" class="node">
<title>:screen:budgets</title>
<ellipse fill="none" stroke="black" cx="1340" cy="-450" rx="68.24" ry="18"/>
<text text-anchor="middle" x="1340" y="-444.95" font-family="Times,serif" font-size="14.00">:screen:budgets</text>
</g>
<!-- :app&#45;&gt;:screen:budgets -->
<g id="edge3" class="edge">
<title>:app&#45;&gt;:screen:budgets</title>
<path fill="none" stroke="black" d="M2656.82,-592.45C2514.23,-589.45 1851.3,-573.85 1649,-540 1555.18,-524.3 1449.36,-490.07 1389.08,-468.93"/>
<polygon fill="black" stroke="black" points="1390.38,-465.68 1379.79,-465.65 1388.05,-472.28 1390.38,-465.68"/>
</g>
<!-- :screen:categories -->
<g id="node5" class="node">
<title>:screen:categories</title>
<ellipse fill="none" stroke="black" cx="2355" cy="-450" rx="76.94" ry="18"/>
<text text-anchor="middle" x="2355" y="-444.95" font-family="Times,serif" font-size="14.00">:screen:categories</text>
</g>
<!-- :app&#45;&gt;:screen:categories -->
<g id="edge4" class="edge">
<title>:app&#45;&gt;:screen:categories</title>
<path fill="none" stroke="black" d="M2661.65,-583.35C2608.34,-560.34 2472.87,-501.87 2401.16,-470.92"/>
<polygon fill="black" stroke="black" points="2402.59,-467.73 2392.03,-466.98 2399.82,-474.16 2402.59,-467.73"/>
</g>
<!-- :screen:contributors -->
<g id="node6" class="node">
<title>:screen:contributors</title>
<ellipse fill="none" stroke="black" cx="791" cy="-378" rx="84.11" ry="18"/>
<text text-anchor="middle" x="791" y="-372.95" font-family="Times,serif" font-size="14.00">:screen:contributors</text>
</g>
<!-- :app&#45;&gt;:screen:contributors -->
<g id="edge5" class="edge">
<title>:app&#45;&gt;:screen:contributors</title>
<path fill="none" stroke="black" d="M2656.63,-592.7C2456.66,-590.43 1223.85,-575.09 1062,-540 980.61,-522.35 959.3,-512.65 889,-468 860.61,-449.97 832.65,-423.47 813.91,-404.07"/>
<polygon fill="black" stroke="black" points="816.69,-401.92 807.27,-397.08 811.62,-406.74 816.69,-401.92"/>
</g>
<!-- :screen:edit&#45;transaction -->
<g id="node7" class="node">
<title>:screen:edit&#45;transaction</title>
<ellipse fill="none" stroke="black" cx="1190" cy="-522" rx="96.9" ry="18"/>
<text text-anchor="middle" x="1190" y="-516.95" font-family="Times,serif" font-size="14.00">:screen:edit&#45;transaction</text>
</g>
<!-- :app&#45;&gt;:screen:edit&#45;transaction -->
<g id="edge6" class="edge">
<title>:app&#45;&gt;:screen:edit&#45;transaction</title>
<path fill="none" stroke="red" stroke-width="2" d="M2656.83,-592.02C2525.01,-587.25 1938.88,-565.54 1459,-540 1403.39,-537.04 1341.36,-533.16 1290.89,-529.85"/>
<polygon fill="red" stroke="red" stroke-width="2" points="1292.87,-526.48 1282.66,-529.31 1292.41,-533.46 1292.87,-526.48"/>
</g>
<!-- :screen:exchange&#45;rates -->
<g id="node8" class="node">
<title>:screen:exchange&#45;rates</title>
<ellipse fill="none" stroke="black" cx="1833" cy="-450" rx="94.86" ry="18"/>
<text text-anchor="middle" x="1833" y="-444.95" font-family="Times,serif" font-size="14.00">:screen:exchange&#45;rates</text>
</g>
<!-- :app&#45;&gt;:screen:exchange&#45;rates -->
<g id="edge7" class="edge">
<title>:app&#45;&gt;:screen:exchange&#45;rates</title>
<path fill="none" stroke="black" d="M2656.85,-593C2522.03,-592.77 1928.37,-588.95 1864,-540 1845.47,-525.91 1837.96,-499.99 1834.95,-479.74"/>
<polygon fill="black" stroke="black" points="1838.42,-479.35 1833.79,-469.82 1831.47,-480.16 1838.42,-479.35"/>
</g>
<!-- :screen:features -->
<g id="node9" class="node">
<title>:screen:features</title>
<ellipse fill="none" stroke="black" cx="439" cy="-378" rx="68.75" ry="18"/>
<text text-anchor="middle" x="439" y="-372.95" font-family="Times,serif" font-size="14.00">:screen:features</text>
</g>
<!-- :app&#45;&gt;:screen:features -->
<g id="edge8" class="edge">
<title>:app&#45;&gt;:screen:features</title>
<path fill="none" stroke="black" d="M2656.74,-592.8C2441.89,-591.13 1024.47,-578.7 839,-540 699.94,-510.99 547.26,-436.53 477.55,-399.93"/>
<polygon fill="black" stroke="black" points="479.3,-396.9 468.83,-395.32 476.03,-403.09 479.3,-396.9"/>
</g>
<!-- :screen:home -->
<g id="node10" class="node">
<title>:screen:home</title>
<ellipse fill="none" stroke="black" cx="3173" cy="-450" rx="60.56" ry="18"/>
<text text-anchor="middle" x="3173" y="-444.95" font-family="Times,serif" font-size="14.00">:screen:home</text>
</g>
<!-- :app&#45;&gt;:screen:home -->
<g id="edge9" class="edge">
<title>:app&#45;&gt;:screen:home</title>
<path fill="none" stroke="black" d="M2708.58,-585.86C2784.26,-563.88 3014.94,-496.9 3119.94,-466.41"/>
<polygon fill="black" stroke="black" points="3120.82,-469.8 3129.45,-463.65 3118.87,-463.07 3120.82,-469.8"/>
</g>
<!-- :screen:import&#45;data -->
<g id="node11" class="node">
<title>:screen:import&#45;data</title>
<ellipse fill="none" stroke="black" cx="1956" cy="-522" rx="83.08" ry="18"/>
<text text-anchor="middle" x="1956" y="-516.95" font-family="Times,serif" font-size="14.00">:screen:import&#45;data</text>
</g>
<!-- :app&#45;&gt;:screen:import&#45;data -->
<g id="edge10" class="edge">
<title>:app&#45;&gt;:screen:import&#45;data</title>
<path fill="none" stroke="black" d="M2656.85,-591.59C2569.17,-586.86 2285.77,-570.11 2053,-540 2045.01,-538.97 2036.69,-537.74 2028.41,-536.42"/>
<polygon fill="black" stroke="black" points="2029.12,-532.99 2018.68,-534.83 2027.98,-539.9 2029.12,-532.99"/>
</g>
<!-- :screen:loans -->
<g id="node12" class="node">
<title>:screen:loans</title>
<ellipse fill="none" stroke="black" cx="4370" cy="-450" rx="59.03" ry="18"/>
<text text-anchor="middle" x="4370" y="-444.95" font-family="Times,serif" font-size="14.00">:screen:loans</text>
</g>
<!-- :app&#45;&gt;:screen:loans -->
<g id="edge11" class="edge">
<title>:app&#45;&gt;:screen:loans</title>
<path fill="none" stroke="black" d="M2711.44,-592.98C2883.22,-592.73 3812.51,-589.05 4092,-540 4176.75,-525.13 4271.38,-490.83 4325.5,-469.42"/>
<polygon fill="black" stroke="black" points="4326.7,-472.71 4334.68,-465.75 4324.1,-466.21 4326.7,-472.71"/>
</g>
<!-- :screen:main -->
<g id="node13" class="node">
<title>:screen:main</title>
<ellipse fill="none" stroke="black" cx="3963" cy="-522" rx="58.52" ry="18"/>
<text text-anchor="middle" x="3963" y="-516.95" font-family="Times,serif" font-size="14.00">:screen:main</text>
</g>
<!-- :app&#45;&gt;:screen:main -->
<g id="edge12" class="edge">
<title>:app&#45;&gt;:screen:main</title>
<path fill="none" stroke="black" d="M2711.09,-591.93C2831.99,-587.1 3334.25,-566.4 3746,-540 3796.26,-536.78 3853.01,-532.3 3895.86,-528.75"/>
<polygon fill="black" stroke="black" points="3896.1,-532.25 3905.77,-527.93 3895.52,-525.27 3896.1,-532.25"/>
</g>
<!-- :screen:onboarding -->
<g id="node14" class="node">
<title>:screen:onboarding</title>
<ellipse fill="none" stroke="black" cx="2179" cy="-450" rx="81.55" ry="18"/>
<text text-anchor="middle" x="2179" y="-444.95" font-family="Times,serif" font-size="14.00">:screen:onboarding</text>
</g>
<!-- :app&#45;&gt;:screen:onboarding -->
<g id="edge13" class="edge">
<title>:app&#45;&gt;:screen:onboarding</title>
<path fill="none" stroke="black" d="M2658.74,-586.87C2619.66,-577.32 2542.24,-558.09 2477,-540 2392.5,-516.58 2295.29,-487.06 2235.5,-468.6"/>
<polygon fill="black" stroke="black" points="2236.82,-465.34 2226.23,-465.73 2234.75,-472.03 2236.82,-465.34"/>
</g>
<!-- :screen:piechart -->
<g id="node15" class="node">
<title>:screen:piechart</title>
<ellipse fill="none" stroke="black" cx="4224" cy="-450" rx="69.26" ry="18"/>
<text text-anchor="middle" x="4224" y="-444.95" font-family="Times,serif" font-size="14.00">:screen:piechart</text>
</g>
<!-- :app&#45;&gt;:screen:piechart -->
<g id="edge14" class="edge">
<title>:app&#45;&gt;:screen:piechart</title>
<path fill="none" stroke="black" d="M2711.17,-592.57C2890.27,-589.64 3898.37,-571.85 4031,-540 4089.13,-526.04 4150.99,-494.1 4188.57,-472.53"/>
<polygon fill="black" stroke="black" points="4189.85,-475.83 4196.73,-467.78 4186.33,-469.78 4189.85,-475.83"/>
</g>
<!-- :screen:planned&#45;payments -->
<g id="node16" class="node">
<title>:screen:planned&#45;payments</title>
<ellipse fill="none" stroke="black" cx="4787" cy="-450" rx="107.65" ry="18"/>
<text text-anchor="middle" x="4787" y="-444.95" font-family="Times,serif" font-size="14.00">:screen:planned&#45;payments</text>
</g>
<!-- :app&#45;&gt;:screen:planned&#45;payments -->
<g id="edge15" class="edge">
<title>:app&#45;&gt;:screen:planned&#45;payments</title>
<path fill="none" stroke="black" d="M2711.2,-592.6C2894.43,-589.86 3950.83,-572.8 4271,-540 4429.26,-523.79 4612.29,-488.15 4712.26,-467.22"/>
<polygon fill="black" stroke="black" points="4712.89,-470.66 4721.96,-465.18 4711.45,-463.81 4712.89,-470.66"/>
</g>
<!-- :screen:releases -->
<g id="node17" class="node">
<title>:screen:releases</title>
<ellipse fill="none" stroke="black" cx="3862" cy="-378" rx="68.75" ry="18"/>
<text text-anchor="middle" x="3862" y="-372.95" font-family="Times,serif" font-size="14.00">:screen:releases</text>
</g>
<!-- :app&#45;&gt;:screen:releases -->
<g id="edge16" class="edge">
<title>:app&#45;&gt;:screen:releases</title>
<path fill="none" stroke="black" d="M2711.06,-592.19C2829.14,-588.5 3299.87,-572.02 3444,-540 3518.58,-523.43 3724.89,-437.46 3816.8,-398.38"/>
<polygon fill="black" stroke="black" points="3817.95,-401.7 3825.77,-394.56 3815.2,-395.26 3817.95,-401.7"/>
</g>
<!-- :screen:reports -->
<g id="node18" class="node">
<title>:screen:reports</title>
<ellipse fill="none" stroke="black" cx="3824" cy="-450" rx="65.17" ry="18"/>
<text text-anchor="middle" x="3824" y="-444.95" font-family="Times,serif" font-size="14.00">:screen:reports</text>
</g>
<!-- :app&#45;&gt;:screen:reports -->
<g id="edge17" class="edge">
<title>:app&#45;&gt;:screen:reports</title>
<path fill="none" stroke="black" d="M2711.28,-592.36C2861.67,-588.74 3586.24,-569.82 3681,-540 3724.66,-526.26 3768.4,-496.04 3795.79,-474.64"/>
<polygon fill="black" stroke="black" points="3797.95,-477.39 3803.59,-468.42 3793.59,-471.92 3797.95,-477.39"/>
</g>
<!-- :screen:search -->
<g id="node19" class="node">
<title>:screen:search</title>
<ellipse fill="none" stroke="black" cx="2922" cy="-450" rx="63.12" ry="18"/>
<text text-anchor="middle" x="2922" y="-444.95" font-family="Times,serif" font-size="14.00">:screen:search</text>
</g>
<!-- :app&#45;&gt;:screen:search -->
<g id="edge18" class="edge">
<title>:app&#45;&gt;:screen:search</title>
<path fill="none" stroke="black" d="M2703.48,-581.38C2743.44,-557.53 2835.24,-502.76 2886.22,-472.35"/>
<polygon fill="black" stroke="black" points="2887.75,-475.51 2894.55,-467.38 2884.17,-469.5 2887.75,-475.51"/>
</g>
<!-- :screen:settings -->
<g id="node20" class="node">
<title>:screen:settings</title>
<ellipse fill="none" stroke="black" cx="3367" cy="-522" rx="67.73" ry="18"/>
<text text-anchor="middle" x="3367" y="-516.95" font-family="Times,serif" font-size="14.00">:screen:settings</text>
</g>
<!-- :app&#45;&gt;:screen:settings -->
<g id="edge19" class="edge">
<title>:app&#45;&gt;:screen:settings</title>
<path fill="none" stroke="black" d="M2711.09,-591.74C2796.06,-587.54 3064.79,-572.42 3285,-540 3291.72,-539.01 3298.71,-537.82 3305.66,-536.53"/>
<polygon fill="black" stroke="black" points="3306.22,-539.98 3315.37,-534.65 3304.89,-533.11 3306.22,-539.98"/>
</g>
<!-- :screen:transactions -->
<g id="node21" class="node">
<title>:screen:transactions</title>
<ellipse fill="none" stroke="black" cx="4531" cy="-450" rx="83.6" ry="18"/>
<text text-anchor="middle" x="4531" y="-444.95" font-family="Times,serif" font-size="14.00">:screen:transactions</text>
</g>
<!-- :app&#45;&gt;:screen:transactions -->
<g id="edge20" class="edge">
<title>:app&#45;&gt;:screen:transactions</title>
<path fill="none" stroke="black" d="M2711.22,-592.8C2887.89,-591.4 3874.09,-581.77 4172,-540 4280.8,-524.74 4404.53,-490.13 4474.63,-468.84"/>
<polygon fill="black" stroke="black" points="4475.43,-472.26 4483.96,-465.99 4473.38,-465.56 4475.43,-472.26"/>
</g>
<!-- :shared:base -->
<g id="node22" class="node">
<title>:shared:base</title>
<ellipse fill="none" stroke="black" cx="2685" cy="-18" rx="56.47" ry="18"/>
<text text-anchor="middle" x="2685" y="-12.95" font-family="Times,serif" font-size="14.00">:shared:base</text>
</g>
<!-- :app&#45;&gt;:shared:base -->
<g id="edge21" class="edge">
<title>:app&#45;&gt;:shared:base</title>
<path fill="none" stroke="black" d="M2711.32,-593.1C2933.45,-593.8 4446.69,-596.44 4899,-540 5075.42,-517.99 5289,-628.79 5289,-451 5289,-451 5289,-451 5289,-161 5289,-129.79 5405.7,-143.01 5124,-72 5006.06,-42.27 3135.44,-23.22 2752.98,-19.62"/>
<polygon fill="black" stroke="black" points="2753.12,-16.12 2743.09,-19.53 2753.06,-23.12 2753.12,-16.12"/>
</g>
<!-- :shared:data -->
<g id="node23" class="node">
<title>:shared:data</title>
<ellipse fill="none" stroke="black" cx="4149" cy="-90" rx="55.45" ry="18"/>
<text text-anchor="middle" x="4149" y="-84.95" font-family="Times,serif" font-size="14.00">:shared:data</text>
</g>
<!-- :app&#45;&gt;:shared:data -->
<g id="edge22" class="edge">
<title>:app&#45;&gt;:shared:data</title>
<path fill="none" stroke="black" d="M2711.11,-592.95C2983.29,-592.32 5213,-583.13 5213,-451 5213,-451 5213,-451 5213,-377 5213,-222.16 5103.77,-183.3 4954,-144 4815.11,-107.55 4382.3,-95.49 4215.49,-92.13"/>
<polygon fill="black" stroke="black" points="4216,-88.64 4205.93,-91.94 4215.86,-95.64 4216,-88.64"/>
</g>
<!-- :shared:domain -->
<g id="node24" class="node">
<title>:shared:domain</title>
<ellipse fill="none" stroke="black" cx="2447" cy="-162" rx="68.24" ry="18"/>
<text text-anchor="middle" x="2447" y="-156.95" font-family="Times,serif" font-size="14.00">:shared:domain</text>
</g>
<!-- :app&#45;&gt;:shared:domain -->
<g id="edge23" class="edge">
<title>:app&#45;&gt;:shared:domain</title>
<path fill="none" stroke="black" d="M2656.85,-592.67C2449.68,-590.06 1116.22,-572.23 714,-540 473.53,-520.73 334.87,-649.55 176,-468 13.9,-282.76 277.8,-283.91 798,-216 1106.85,-175.68 2081.08,-165.62 2367.23,-163.5"/>
<polygon fill="black" stroke="black" points="2367.24,-167 2377.22,-163.43 2367.19,-160 2367.24,-167"/>
</g>
<!-- :shared:ui:navigation -->
<g id="node25" class="node">
<title>:shared:ui:navigation</title>
<ellipse fill="none" stroke="black" cx="2254" cy="-306" rx="88.71" ry="18"/>
<text text-anchor="middle" x="2254" y="-300.95" font-family="Times,serif" font-size="14.00">:shared:ui:navigation</text>
</g>
<!-- :app&#45;&gt;:shared:ui:navigation -->
<g id="edge24" class="edge">
<title>:app&#45;&gt;:shared:ui:navigation</title>
<path fill="none" stroke="black" d="M2656.87,-591.8C2549.76,-586.45 2158.66,-560.7 2088,-468 2044.77,-411.29 2141.43,-355.77 2204.68,-327.09"/>
<polygon fill="black" stroke="black" points="2205.8,-330.42 2213.52,-323.17 2202.96,-324.02 2205.8,-330.42"/>
</g>
<!-- :temp:legacy&#45;code -->
<g id="node26" class="node">
<title>:temp:legacy&#45;code</title>
<ellipse fill="none" stroke="black" cx="2707" cy="-378" rx="79.5" ry="18"/>
<text text-anchor="middle" x="2707" y="-372.95" font-family="Times,serif" font-size="14.00">:temp:legacy&#45;code</text>
</g>
<!-- :app&#45;&gt;:temp:legacy&#45;code -->
<g id="edge25" class="edge">
<title>:app&#45;&gt;:temp:legacy&#45;code</title>
<path fill="none" stroke="black" d="M2685.84,-575.85C2689.79,-539.14 2699.08,-452.66 2703.93,-407.53"/>
<polygon fill="black" stroke="black" points="2707.4,-408.05 2704.99,-397.74 2700.44,-407.31 2707.4,-408.05"/>
</g>
<!-- :temp:old&#45;design -->
<g id="node27" class="node">
<title>:temp:old&#45;design</title>
<ellipse fill="none" stroke="black" cx="3157" cy="-306" rx="73.87" ry="18"/>
<text text-anchor="middle" x="3157" y="-300.95" font-family="Times,serif" font-size="14.00">:temp:old&#45;design</text>
</g>
<!-- :app&#45;&gt;:temp:old&#45;design -->
<g id="edge26" class="edge">
<title>:app&#45;&gt;:temp:old&#45;design</title>
<path fill="none" stroke="black" d="M2711.08,-591.3C2813.6,-584.27 3175.51,-553.61 3243,-468 3277.69,-424 3223.43,-363.97 3186.55,-331.05"/>
<polygon fill="black" stroke="black" points="3189.05,-328.59 3179.21,-324.67 3184.46,-333.87 3189.05,-328.59"/>
</g>
<!-- :widget:add&#45;transaction -->
<g id="node28" class="node">
<title>:widget:add&#45;transaction</title>
<ellipse fill="none" stroke="black" cx="1371" cy="-378" rx="97.93" ry="18"/>
<text text-anchor="middle" x="1371" y="-372.95" font-family="Times,serif" font-size="14.00">:widget:add&#45;transaction</text>
</g>
<!-- :app&#45;&gt;:widget:add&#45;transaction -->
<g id="edge27" class="edge">
<title>:app&#45;&gt;:widget:add&#45;transaction</title>
<path fill="none" stroke="black" d="M2656.66,-593.19C2529.33,-593.77 1994.06,-592.97 1837,-540 1782.34,-521.57 1774.1,-503.97 1729,-468 1710.81,-453.5 1711.83,-442.35 1691,-432 1625.47,-399.43 1544.01,-386.27 1479.69,-381.21"/>
<polygon fill="black" stroke="black" points="1480.03,-377.72 1469.8,-380.49 1479.52,-384.7 1480.03,-377.72"/>
</g>
<!-- :widget:balance -->
<g id="node29" class="node">
<title>:widget:balance</title>
<ellipse fill="none" stroke="black" cx="1065" cy="-450" rx="69.26" ry="18"/>
<text text-anchor="middle" x="1065" y="-444.95" font-family="Times,serif" font-size="14.00">:widget:balance</text>
</g>
<!-- :app&#45;&gt;:widget:balance -->
<g id="edge28" class="edge">
<title>:app&#45;&gt;:widget:balance</title>
<path fill="none" stroke="black" d="M2656.73,-593.04C2450.82,-593.26 1146.81,-592.56 1084,-540 1066.76,-525.57 1062.81,-499.69 1062.71,-479.54"/>
<polygon fill="black" stroke="black" points="1066.21,-479.8 1063,-469.7 1059.21,-479.59 1066.21,-479.8"/>
</g>
<!-- :screen:attributions&#45;&gt;:shared:base -->
<g id="edge29" class="edge">
<title>:screen:attributions&#45;&gt;:shared:base</title>
<path fill="none" stroke="black" d="M613.88,-359.83C623.82,-333.44 641,-281.14 641,-235 641,-235 641,-235 641,-161 641,-108.98 670.06,-94.41 717,-72 804.42,-30.26 2280.78,-20.88 2617.16,-19.28"/>
<polygon fill="black" stroke="black" points="2616.68,-22.79 2626.67,-19.24 2616.65,-15.79 2616.68,-22.79"/>
</g>
<!-- :screen:attributions&#45;&gt;:shared:domain -->
<g id="edge30" class="edge">
<title>:screen:attributions&#45;&gt;:shared:domain</title>
<path fill="none" stroke="black" d="M668.9,-365.9C718.24,-356.04 782.35,-340.64 803,-324 845.1,-290.07 813.27,-244.85 859,-216 891.22,-195.67 2050.82,-170.95 2367.69,-164.56"/>
<polygon fill="black" stroke="black" points="2367.61,-168.07 2377.53,-164.37 2367.47,-161.07 2367.61,-168.07"/>
</g>
<!-- :screen:attributions&#45;&gt;:shared:ui:navigation -->
<g id="edge32" class="edge">
<title>:screen:attributions&#45;&gt;:shared:ui:navigation</title>
<path fill="none" stroke="black" d="M664.57,-364.89C675.62,-362.95 687.14,-361.19 698,-360 982,-328.82 1858.07,-312.99 2154.66,-308.43"/>
<polygon fill="black" stroke="black" points="2154.35,-311.93 2164.3,-308.28 2154.25,-304.93 2154.35,-311.93"/>
</g>
<!-- :shared:ui:core -->
<g id="node30" class="node">
<title>:shared:ui:core</title>
<ellipse fill="none" stroke="black" cx="2621" cy="-234" rx="65.68" ry="18"/>
<text text-anchor="middle" x="2621" y="-228.95" font-family="Times,serif" font-size="14.00">:shared:ui:core</text>
</g>
<!-- :screen:attributions&#45;&gt;:shared:ui:core -->
<g id="edge31" class="edge">
<title>:screen:attributions&#45;&gt;:shared:ui:core</title>
<path fill="none" stroke="black" d="M666.12,-365.27C676.71,-363.37 687.66,-361.52 698,-360 845.27,-338.32 883.44,-343.61 1031,-324 1132.69,-310.48 1156.9,-298.01 1259,-288 1746.12,-240.23 2335.22,-235.06 2543.5,-234.83"/>
<polygon fill="black" stroke="black" points="2543.39,-238.33 2553.39,-234.82 2543.39,-231.33 2543.39,-238.33"/>
</g>
<!-- :screen:balance&#45;&gt;:shared:base -->
<g id="edge33" class="edge">
<title>:screen:balance&#45;&gt;:shared:base</title>
<path fill="none" stroke="black" d="M1551.51,-442.77C1512.81,-439.12 1462.06,-434.7 1417,-432 1298.81,-424.91 464.08,-434.16 352,-396 287.78,-374.14 228,-374.84 228,-307 228,-307 228,-307 228,-161 228,-113.79 244.74,-94.95 286,-72 390.47,-13.89 2236.61,-17.38 2616.85,-18.72"/>
<polygon fill="black" stroke="black" points="2616.67,-22.22 2626.68,-18.76 2616.7,-15.22 2616.67,-22.22"/>
</g>
<!-- :screen:balance&#45;&gt;:shared:domain -->
<g id="edge34" class="edge">
<title>:screen:balance&#45;&gt;:shared:domain</title>
<path fill="none" stroke="black" d="M1549.72,-444.08C1451.18,-435.88 1272.1,-418.11 1253,-396 1242.54,-383.89 1243.6,-372.95 1253,-360 1384.15,-179.21 2121.11,-162.84 2367.08,-162.48"/>
<polygon fill="black" stroke="black" points="2366.9,-165.98 2376.9,-162.47 2366.9,-158.98 2366.9,-165.98"/>
</g>
<!-- :screen:balance&#45;&gt;:shared:ui:navigation -->
<g id="edge36" class="edge">
<title>:screen:balance&#45;&gt;:shared:ui:navigation</title>
<path fill="none" stroke="black" d="M1670.69,-439.87C1745.94,-427.48 1871.6,-405.79 1891,-396 1912.06,-385.38 1908.8,-370.34 1930,-360 1999.98,-325.87 2087.52,-313.07 2153.97,-308.56"/>
<polygon fill="black" stroke="black" points="2154,-312.06 2163.77,-307.95 2153.57,-305.08 2154,-312.06"/>
</g>
<!-- :screen:balance&#45;&gt;:temp:legacy&#45;code -->
<g id="edge37" class="edge">
<title>:screen:balance&#45;&gt;:temp:legacy&#45;code</title>
<path fill="none" stroke="black" d="M1670.32,-439.61C1688.95,-436.79 1709.82,-433.93 1729,-432 1899.92,-414.77 2410.29,-391.72 2617.79,-382.77"/>
<polygon fill="black" stroke="black" points="2617.88,-386.27 2627.72,-382.35 2617.58,-379.28 2617.88,-386.27"/>
</g>
<!-- :screen:balance&#45;&gt;:temp:old&#45;design -->
<g id="edge38" class="edge">
<title>:screen:balance&#45;&gt;:temp:old&#45;design</title>
<path fill="none" stroke="black" d="M1670.94,-439.86C1689.43,-437.09 1710.05,-434.19 1729,-432 1918.63,-410.03 1969.72,-432.97 2157,-396 2209.13,-385.71 2218.75,-369.66 2271,-360 2348.52,-345.67 2868.22,-320.38 3073.66,-310.81"/>
<polygon fill="black" stroke="black" points="3073.63,-314.32 3083.46,-310.36 3073.3,-307.33 3073.63,-314.32"/>
</g>
<!-- :screen:balance&#45;&gt;:shared:ui:core -->
<g id="edge35" class="edge">
<title>:screen:balance&#45;&gt;:shared:ui:core</title>
<path fill="none" stroke="black" d="M1550.11,-443.8C1454.24,-435.34 1282.38,-417.38 1264,-396 1253.57,-383.87 1253.3,-371.9 1264,-360 1314.35,-303.99 1529.34,-347.18 1601,-324 1631.68,-314.08 1633.07,-297.14 1664,-288 1828.09,-239.53 2346.14,-234.73 2543.56,-234.72"/>
<polygon fill="black" stroke="black" points="2543.45,-238.22 2553.45,-234.72 2543.45,-231.22 2543.45,-238.22"/>
</g>
<!-- :screen:budgets&#45;&gt;:shared:base -->
<g id="edge39" class="edge">
<title>:screen:budgets&#45;&gt;:shared:base</title>
<path fill="none" stroke="black" d="M1277.06,-442.83C1238.41,-439.22 1187.88,-434.84 1143,-432 1043.9,-425.73 341.89,-433.64 250,-396 195.55,-373.7 152,-365.84 152,-307 152,-307 152,-307 152,-161 152,-105.99 187.6,-94.03 238,-72 349.84,-23.11 2232.76,-19.29 2616.9,-19.02"/>
<polygon fill="black" stroke="black" points="2616.84,-22.52 2626.84,-19.01 2616.84,-15.52 2616.84,-22.52"/>
</g>
<!-- :screen:budgets&#45;&gt;:shared:data -->
<g id="edge40" class="edge">
<title>:screen:budgets&#45;&gt;:shared:data</title>
<path fill="none" stroke="black" d="M1276.62,-442.85C1238.02,-439.28 1187.7,-434.91 1143,-432 1097.77,-429.05 359.33,-428.75 328,-396 316.94,-384.44 318.75,-373.06 328,-360 599.55,23.5 894.14,-175.35 1363,-144 1916.15,-107.01 3711.93,-93.77 4081.95,-91.41"/>
<polygon fill="black" stroke="black" points="4081.75,-94.91 4091.73,-91.34 4081.71,-87.91 4081.75,-94.91"/>
</g>
<!-- :screen:budgets&#45;&gt;:shared:domain -->
<g id="edge41" class="edge">
<title>:screen:budgets&#45;&gt;:shared:domain</title>
<path fill="none" stroke="black" d="M1294.69,-436.18C1274.87,-428.07 1253.54,-415.36 1242,-396 1233.81,-382.26 1237.22,-375.27 1242,-360 1275.49,-253.05 1340.18,-242.8 1449,-216 1622.51,-173.26 2162.91,-164.99 2367.46,-163.38"/>
<polygon fill="black" stroke="black" points="2367.21,-166.89 2377.18,-163.31 2367.16,-159.89 2367.21,-166.89"/>
</g>
<!-- :screen:budgets&#45;&gt;:shared:ui:navigation -->
<g id="edge43" class="edge">
<title>:screen:budgets&#45;&gt;:shared:ui:navigation</title>
<path fill="none" stroke="black" d="M1394.87,-439.03C1490.01,-421.89 1691.83,-386.16 1863,-360 1968.04,-343.95 2089.35,-327.89 2168.64,-317.73"/>
<polygon fill="black" stroke="black" points="2169.05,-321.2 2178.52,-316.46 2168.16,-314.26 2169.05,-321.2"/>
</g>
<!-- :screen:budgets&#45;&gt;:temp:legacy&#45;code -->
<g id="edge44" class="edge">
<title>:screen:budgets&#45;&gt;:temp:legacy&#45;code</title>
<path fill="none" stroke="black" d="M1403.38,-442.87C1441.98,-439.3 1492.3,-434.94 1537,-432 1939.59,-405.52 2420.98,-388.25 2617.16,-381.82"/>
<polygon fill="black" stroke="black" points="2617.15,-385.32 2627.03,-381.5 2616.92,-378.32 2617.15,-385.32"/>
</g>
<!-- :screen:budgets&#45;&gt;:temp:old&#45;design -->
<g id="edge45" class="edge">
<title>:screen:budgets&#45;&gt;:temp:old&#45;design</title>
<path fill="none" stroke="black" d="M1400.36,-441.26C1535.6,-424.18 1873.28,-382.95 2157,-360 2495.79,-332.59 2900.35,-316.13 3072.63,-309.89"/>
<polygon fill="black" stroke="black" points="3072.75,-313.39 3082.62,-309.53 3072.5,-306.39 3072.75,-313.39"/>
</g>
<!-- :screen:budgets&#45;&gt;:shared:ui:core -->
<g id="edge42" class="edge">
<title>:screen:budgets&#45;&gt;:shared:ui:core</title>
<path fill="none" stroke="black" d="M1299.87,-435.05C1282.18,-426.66 1263.13,-414.04 1253,-396 1245.16,-382.05 1242.45,-372.03 1253,-360 1293.19,-314.15 1466.52,-341.26 1525,-324 1560.85,-313.42 1564.76,-297.14 1601,-288 1779.24,-243.03 2337.8,-236.14 2543.74,-235.14"/>
<polygon fill="black" stroke="black" points="2543.54,-238.64 2553.53,-235.1 2543.51,-231.64 2543.54,-238.64"/>
</g>
<!-- :screen:categories&#45;&gt;:shared:base -->
<g id="edge46" class="edge">
<title>:screen:categories&#45;&gt;:shared:base</title>
<path fill="none" stroke="black" d="M2301.46,-436.84C2248.83,-424.45 2174.96,-405.72 2165,-396 2106.13,-338.56 2078.24,-285.64 2122,-216 2200.47,-91.11 2281.15,-118.88 2421,-72 2487.93,-49.56 2567.76,-35.15 2621.98,-27.11"/>
<polygon fill="black" stroke="black" points="2622.26,-30.61 2631.65,-25.71 2621.25,-23.68 2622.26,-30.61"/>
</g>
<!-- :screen:categories&#45;&gt;:shared:data -->
<g id="edge47" class="edge">
<title>:screen:categories&#45;&gt;:shared:data</title>
<path fill="none" stroke="black" d="M2362.6,-431.83C2383.79,-386.35 2448.49,-263.05 2546,-216 2686.1,-148.39 3797.6,-103.75 4082.6,-93.34"/>
<polygon fill="black" stroke="black" points="4082.59,-96.84 4092.46,-92.98 4082.34,-89.84 4082.59,-96.84"/>
</g>
<!-- :screen:categories&#45;&gt;:shared:domain -->
<g id="edge48" class="edge">
<title>:screen:categories&#45;&gt;:shared:domain</title>
<path fill="none" stroke="black" d="M2308.88,-435.15C2236.86,-411.03 2110.4,-357.21 2156,-288 2204,-215.15 2304.28,-184.58 2373.6,-171.87"/>
<polygon fill="black" stroke="black" points="2374.14,-175.33 2383.39,-170.17 2372.94,-168.44 2374.14,-175.33"/>
</g>
<!-- :screen:categories&#45;&gt;:shared:ui:navigation -->
<g id="edge50" class="edge">
<title>:screen:categories&#45;&gt;:shared:ui:navigation</title>
<path fill="none" stroke="black" d="M2342.82,-431.87C2325.38,-407.35 2293.14,-362.03 2272.68,-333.26"/>
<polygon fill="black" stroke="black" points="2275.75,-331.54 2267.1,-325.42 2270.05,-335.6 2275.75,-331.54"/>
</g>
<!-- :screen:categories&#45;&gt;:temp:legacy&#45;code -->
<g id="edge51" class="edge">
<title>:screen:categories&#45;&gt;:temp:legacy&#45;code</title>
<path fill="none" stroke="black" d="M2412.34,-437.6C2473.94,-425.35 2571.84,-405.88 2637.71,-392.78"/>
<polygon fill="black" stroke="black" points="2638.2,-396.25 2647.32,-390.87 2636.83,-389.39 2638.2,-396.25"/>
</g>
<!-- :screen:categories&#45;&gt;:temp:old&#45;design -->
<g id="edge52" class="edge">
<title>:screen:categories&#45;&gt;:temp:old&#45;design</title>
<path fill="none" stroke="black" d="M2402.21,-435.46C2431.07,-426.26 2468.23,-412.74 2499,-396 2522.43,-383.26 2522.09,-369.52 2547,-360 2640.66,-324.2 2927.51,-312.38 3071.98,-308.64"/>
<polygon fill="black" stroke="black" points="3071.98,-312.14 3081.89,-308.39 3071.8,-305.15 3071.98,-312.14"/>
</g>
<!-- :screen:categories&#45;&gt;:shared:ui:core -->
<g id="edge49" class="edge">
<title>:screen:categories&#45;&gt;:shared:ui:core</title>
<path fill="none" stroke="black" d="M2372.97,-432.25C2405.6,-402.11 2477.24,-337.32 2542,-288 2556.09,-277.27 2572.24,-266.23 2586.25,-257.02"/>
<polygon fill="black" stroke="black" points="2587.82,-260.17 2594.29,-251.79 2584,-254.31 2587.82,-260.17"/>
</g>
<!-- :screen:contributors&#45;&gt;:shared:base -->
<g id="edge53" class="edge">
<title>:screen:contributors&#45;&gt;:shared:base</title>
<path fill="none" stroke="black" d="M774.46,-360.27C751.56,-335.26 713,-285.63 713,-235 713,-235 713,-235 713,-161 713,55.1 976.21,-95.67 1191,-72 1473.18,-40.9 2364.07,-24.25 2617.28,-20.06"/>
<polygon fill="black" stroke="black" points="2617.04,-23.57 2626.98,-19.9 2616.93,-16.57 2617.04,-23.57"/>
</g>
<!-- :screen:contributors&#45;&gt;:shared:domain -->
<g id="edge54" class="edge">
<title>:screen:contributors&#45;&gt;:shared:domain</title>
<path fill="none" stroke="black" d="M809.75,-360.14C819.92,-350.31 832.17,-337.27 841,-324 870.1,-280.27 845.45,-245.37 889,-216 919.94,-195.13 2054.96,-170.86 2367.84,-164.56"/>
<polygon fill="black" stroke="black" points="2367.62,-168.06 2377.55,-164.36 2367.48,-161.07 2367.62,-168.06"/>
</g>
<!-- :screen:contributors&#45;&gt;:shared:ui:navigation -->
<g id="edge56" class="edge">
<title>:screen:contributors&#45;&gt;:shared:ui:navigation</title>
<path fill="none" stroke="black" d="M872.53,-373.1C1123.92,-361.07 1886.45,-324.59 2157.28,-311.63"/>
<polygon fill="black" stroke="black" points="2157.31,-315.13 2167.13,-311.16 2156.98,-308.14 2157.31,-315.13"/>
</g>
<!-- :screen:contributors&#45;&gt;:shared:ui:core -->
<g id="edge55" class="edge">
<title>:screen:contributors&#45;&gt;:shared:ui:core</title>
<path fill="none" stroke="black" d="M866.99,-369.93C959.74,-360.96 1121.26,-344.17 1259,-324 1348.36,-310.91 1369.25,-298.08 1459,-288 1865.65,-242.33 2356.57,-235.75 2543.58,-235"/>
<polygon fill="black" stroke="black" points="2543.42,-238.5 2553.41,-234.96 2543.39,-231.5 2543.42,-238.5"/>
</g>
<!-- :screen:edit&#45;transaction&#45;&gt;:shared:base -->
<g id="edge57" class="edge">
<title>:screen:edit&#45;transaction&#45;&gt;:shared:base</title>
<path fill="none" stroke="black" d="M1093.63,-519.57C810.33,-514.11 0,-488.88 0,-379 0,-379 0,-379 0,-161 0,-109.84 26.98,-94.35 73,-72 190.64,-14.87 2216.83,-17.66 2616.76,-18.78"/>
<polygon fill="black" stroke="black" points="2616.59,-22.28 2626.6,-18.8 2616.61,-15.28 2616.59,-22.28"/>
</g>
<!-- :screen:edit&#45;transaction&#45;&gt;:shared:data -->
<g id="edge58" class="edge">
<title>:screen:edit&#45;transaction&#45;&gt;:shared:data</title>
<path fill="none" stroke="black" d="M1092.89,-521.82C879.07,-522.67 382.14,-519.06 327,-468 204.85,-354.88 357.86,-199 515,-144 602.5,-113.37 3593.91,-94.3 4081.98,-91.39"/>
<polygon fill="black" stroke="black" points="4081.88,-94.89 4091.86,-91.33 4081.84,-87.89 4081.88,-94.89"/>
</g>
<!-- :screen:edit&#45;transaction&#45;&gt;:shared:domain -->
<g id="edge59" class="edge">
<title>:screen:edit&#45;transaction&#45;&gt;:shared:domain</title>
<path fill="none" stroke="black" d="M1110.8,-511.25C1049.99,-502.41 972.26,-487.74 947,-468 912.23,-440.83 903,-423.13 903,-379 903,-379 903,-379 903,-305 903,-261.63 907.01,-240.19 943,-216 1002.48,-176.02 2064.97,-165.64 2367.33,-163.49"/>
<polygon fill="black" stroke="black" points="2367.12,-166.99 2377.1,-163.42 2367.07,-159.99 2367.12,-166.99"/>
</g>
<!-- :screen:edit&#45;transaction&#45;&gt;:shared:ui:navigation -->
<g id="edge61" class="edge">
<title>:screen:edit&#45;transaction&#45;&gt;:shared:ui:navigation</title>
<path fill="none" stroke="black" d="M1251.44,-507.74C1297.25,-497.59 1361.28,-482.85 1417,-468 1470.8,-453.66 1482.69,-444.28 1537,-432 1639.2,-408.89 1667.77,-418.99 1770,-396 1824.74,-383.69 1836.21,-372.08 1891,-360 1983.73,-339.55 2091.58,-324.94 2165.48,-316.31"/>
<polygon fill="black" stroke="black" points="2165.55,-319.82 2175.08,-315.2 2164.74,-312.87 2165.55,-319.82"/>
</g>
<!-- :screen:edit&#45;transaction&#45;&gt;:temp:legacy&#45;code -->
<g id="edge62" class="edge">
<title>:screen:edit&#45;transaction&#45;&gt;:temp:legacy&#45;code</title>
<path fill="none" stroke="black" d="M1285.73,-518.78C1589.26,-511.54 2513.89,-487.96 2575,-468 2576.4,-467.54 2634.83,-427.98 2673.48,-401.76"/>
<polygon fill="black" stroke="black" points="2675.27,-404.78 2681.58,-396.27 2671.34,-398.99 2675.27,-404.78"/>
</g>
<!-- :screen:edit&#45;transaction&#45;&gt;:temp:old&#45;design -->
<g id="edge63" class="edge">
<title>:screen:edit&#45;transaction&#45;&gt;:temp:old&#45;design</title>
<path fill="none" stroke="black" d="M1285.28,-518.27C1568,-509.99 2386.01,-484.71 2441,-468 2529.17,-441.2 2530.61,-389.25 2618,-360 2700.17,-332.5 2943.42,-317.13 3073.2,-310.67"/>
<polygon fill="black" stroke="black" points="3073.31,-314.17 3083.13,-310.19 3072.97,-307.18 3073.31,-314.17"/>
</g>
<!-- :screen:edit&#45;transaction&#45;&gt;:widget:balance -->
<g id="edge64" class="edge">
<title>:screen:edit&#45;transaction&#45;&gt;:widget:balance</title>
<path fill="none" stroke="red" stroke-width="2" d="M1160.38,-504.41C1143.2,-494.79 1121.39,-482.58 1102.96,-472.26"/>
<polygon fill="red" stroke="red" stroke-width="2" points="1106.2,-470.06 1095.76,-468.23 1102.78,-476.17 1106.2,-470.06"/>
</g>
<!-- :screen:edit&#45;transaction&#45;&gt;:shared:ui:core -->
<g id="edge60" class="edge">
<title>:screen:edit&#45;transaction&#45;&gt;:shared:ui:core</title>
<path fill="none" stroke="black" d="M1190.23,-503.56C1191.69,-470.17 1199.93,-397.24 1243,-360 1313.31,-299.21 1360.42,-352.15 1449,-324 1484.62,-312.68 1488.74,-297.08 1525,-288 1718.23,-239.62 2327.19,-234.91 2543.68,-234.81"/>
<polygon fill="black" stroke="black" points="2543.4,-238.31 2553.4,-234.81 2543.4,-231.31 2543.4,-238.31"/>
</g>
<!-- :screen:exchange&#45;rates&#45;&gt;:shared:base -->
<g id="edge65" class="edge">
<title>:screen:exchange&#45;rates&#45;&gt;:shared:base</title>
<path fill="none" stroke="black" d="M1757.96,-438.71C1736.38,-436.1 1712.79,-433.6 1691,-432 1654.14,-429.3 386.78,-422.48 361,-396 349.84,-384.53 359.79,-375.95 361,-360 365.23,-303.97 380,-291.19 380,-235 380,-235 380,-235 380,-161 380,-32.11 528.95,-93.68 656,-72 852.48,-38.47 2286.54,-22.81 2617.14,-19.62"/>
<polygon fill="black" stroke="black" points="2616.96,-23.12 2626.92,-19.53 2616.89,-16.12 2616.96,-23.12"/>
</g>
<!-- :screen:exchange&#45;rates&#45;&gt;:shared:data -->
<g id="edge66" class="edge">
<title>:screen:exchange&#45;rates&#45;&gt;:shared:data</title>
<path fill="none" stroke="black" d="M1820.43,-431.97C1808.33,-413.31 1793.68,-382.98 1807,-360 1903.83,-192.92 1998.08,-196.18 2184,-144 2369.61,-91.91 3758.43,-90.48 4081.84,-90.87"/>
<polygon fill="black" stroke="black" points="4081.82,-94.37 4091.82,-90.88 4081.82,-87.37 4081.82,-94.37"/>
</g>
<!-- :screen:exchange&#45;rates&#45;&gt;:shared:domain -->
<g id="edge67" class="edge">
<title>:screen:exchange&#45;rates&#45;&gt;:shared:domain</title>
<path fill="none" stroke="black" d="M1825.11,-431.75C1820.89,-421.58 1816.14,-408.33 1814,-396 1805.21,-345.42 1814.04,-318.95 1855,-288 1936.06,-226.75 2232.62,-186.7 2372.73,-170.77"/>
<polygon fill="black" stroke="black" points="2373.12,-174.25 2382.67,-169.66 2372.34,-167.3 2373.12,-174.25"/>
</g>
<!-- :screen:exchange&#45;rates&#45;&gt;:shared:ui:navigation -->
<g id="edge69" class="edge">
<title>:screen:exchange&#45;rates&#45;&gt;:shared:ui:navigation</title>
<path fill="none" stroke="black" d="M1861.4,-432.48C1896.46,-412.71 1958.39,-379.8 2015,-360 2066.81,-341.88 2127.17,-328.55 2174.27,-319.79"/>
<polygon fill="black" stroke="black" points="2174.63,-323.28 2183.84,-318.05 2173.38,-316.4 2174.63,-323.28"/>
</g>
<!-- :screen:exchange&#45;rates&#45;&gt;:temp:legacy&#45;code -->
<g id="edge70" class="edge">
<title>:screen:exchange&#45;rates&#45;&gt;:temp:legacy&#45;code</title>
<path fill="none" stroke="black" d="M1919.19,-442.1C2086.85,-428.67 2455.02,-399.18 2621.84,-385.82"/>
<polygon fill="black" stroke="black" points="2621.82,-389.33 2631.51,-385.05 2621.26,-382.36 2621.82,-389.33"/>
</g>
<!-- :screen:exchange&#45;rates&#45;&gt;:temp:old&#45;design -->
<g id="edge71" class="edge">
<title>:screen:exchange&#45;rates&#45;&gt;:temp:old&#45;design</title>
<path fill="none" stroke="black" d="M1924.47,-444.96C2013.99,-439.37 2153.63,-426.27 2271,-396 2312.32,-385.34 2318.41,-369.54 2360,-360 2493.58,-329.37 2896.02,-314.44 3072.5,-309.23"/>
<polygon fill="black" stroke="black" points="3072.39,-312.74 3082.28,-308.95 3072.19,-305.74 3072.39,-312.74"/>
</g>
<!-- :screen:exchange&#45;rates&#45;&gt;:shared:ui:core -->
<g id="edge68" class="edge">
<title>:screen:exchange&#45;rates&#45;&gt;:shared:ui:core</title>
<path fill="none" stroke="black" d="M1825.62,-431.8C1818.68,-412.72 1811.23,-381.76 1825,-360 1864.97,-296.83 1904.8,-307.38 1977,-288 2082.2,-259.76 2398.36,-243.87 2544.9,-237.84"/>
<polygon fill="black" stroke="black" points="2544.64,-241.35 2554.49,-237.45 2544.36,-234.36 2544.64,-241.35"/>
</g>
<!-- :screen:features&#45;&gt;:shared:base -->
<g id="edge72" class="edge">
<title>:screen:features&#45;&gt;:shared:base</title>
<path fill="none" stroke="black" d="M397.12,-363.44C345.92,-343.91 266,-302.61 266,-235 266,-235 266,-235 266,-161 266,-101.5 310.64,-93.8 366,-72 473.3,-29.76 2245.34,-20.68 2616.97,-19.23"/>
<polygon fill="black" stroke="black" points="2616.83,-22.73 2626.81,-19.2 2616.8,-15.73 2616.83,-22.73"/>
</g>
<!-- :screen:features&#45;&gt;:shared:domain -->
<g id="edge73" class="edge">
<title>:screen:features&#45;&gt;:shared:domain</title>
<path fill="none" stroke="black" d="M489.01,-365.4C497.97,-363.48 507.25,-361.6 516,-360 626,-339.93 672.07,-386.18 765,-324 811.37,-292.97 780.98,-244.41 829,-216 862.45,-196.21 2046.8,-171.04 2367.57,-164.57"/>
<polygon fill="black" stroke="black" points="2367.62,-168.07 2377.55,-164.37 2367.48,-161.07 2367.62,-168.07"/>
</g>
<!-- :screen:features&#45;&gt;:shared:ui:navigation -->
<g id="edge75" class="edge">
<title>:screen:features&#45;&gt;:shared:ui:navigation</title>
<path fill="none" stroke="black" d="M487.23,-364.91C496.71,-362.94 506.63,-361.17 516,-360 836.29,-320.12 1834.17,-309.88 2154.17,-307.59"/>
<polygon fill="black" stroke="black" points="2153.78,-311.1 2163.75,-307.53 2153.73,-304.1 2153.78,-311.1"/>
</g>
<!-- :screen:features&#45;&gt;:shared:ui:core -->
<g id="edge74" class="edge">
<title>:screen:features&#45;&gt;:shared:ui:core</title>
<path fill="none" stroke="black" d="M488.99,-365.26C497.95,-363.36 507.23,-361.51 516,-360 642.68,-338.12 675.72,-342.03 803,-324 904.58,-309.61 928.87,-297.73 1031,-288 1330.01,-259.52 2268.66,-241.18 2544.22,-236.3"/>
<polygon fill="black" stroke="black" points="2544.23,-239.8 2554.17,-236.13 2544.11,-232.8 2544.23,-239.8"/>
</g>
<!-- :screen:home&#45;&gt;:shared:base -->
<g id="edge76" class="edge">
<title>:screen:home&#45;&gt;:shared:base</title>
<path fill="none" stroke="black" d="M3233.23,-447.06C3409.91,-441.08 3915.97,-421.75 3940,-396 3950.92,-384.3 3943.53,-375.61 3940,-360 3908.02,-218.63 3913.78,-142.24 3787,-72 3696.84,-22.05 2979.16,-18.63 2753,-18.8"/>
<polygon fill="black" stroke="black" points="2753.17,-15.3 2743.17,-18.81 2753.17,-22.3 2753.17,-15.3"/>
</g>
<!-- :screen:home&#45;&gt;:shared:data -->
<g id="edge77" class="edge">
<title>:screen:home&#45;&gt;:shared:data</title>
<path fill="none" stroke="black" d="M3233.23,-446.97C3425.62,-440.28 4014.75,-418.09 4049,-396 4096.92,-365.09 4132.13,-188.67 4144.33,-119.15"/>
<polygon fill="black" stroke="black" points="4147.71,-120.15 4145.96,-109.7 4140.81,-118.96 4147.71,-120.15"/>
</g>
<!-- :screen:home&#45;&gt;:shared:domain -->
<g id="edge78" class="edge">
<title>:screen:home&#45;&gt;:shared:domain</title>
<path fill="none" stroke="black" d="M3190.03,-432.66C3220.47,-401.48 3277.7,-332.64 3240,-288 3149.38,-180.69 2709.9,-164.87 2527.06,-163"/>
<polygon fill="black" stroke="black" points="2527.2,-159.5 2517.17,-162.91 2527.14,-166.5 2527.2,-159.5"/>
</g>
<!-- :screen:home&#45;&gt;:shared:ui:navigation -->
<g id="edge80" class="edge">
<title>:screen:home&#45;&gt;:shared:ui:navigation</title>
<path fill="none" stroke="black" d="M3130.91,-436.74C3047.22,-412.38 2867.83,-360.16 2867,-360 2770.35,-341.95 2495.75,-322.45 2349.08,-312.92"/>
<polygon fill="black" stroke="black" points="2349.6,-309.45 2339.39,-312.3 2349.14,-316.44 2349.6,-309.45"/>
</g>
<!-- :screen:home&#45;&gt;:temp:legacy&#45;code -->
<g id="edge81" class="edge">
<title>:screen:home&#45;&gt;:temp:legacy&#45;code</title>
<path fill="none" stroke="black" d="M3120,-441.04C3037.47,-428.64 2877.93,-404.68 2783.11,-390.43"/>
<polygon fill="black" stroke="black" points="2783.79,-387 2773.38,-388.97 2782.75,-393.92 2783.79,-387"/>
</g>
<!-- :screen:home&#45;&gt;:temp:old&#45;design -->
<g id="edge82" class="edge">
<title>:screen:home&#45;&gt;:temp:old&#45;design</title>
<path fill="none" stroke="black" d="M3173.82,-431.51C3174.37,-413.49 3174.48,-384.64 3171,-360 3169.84,-351.77 3167.84,-342.99 3165.71,-334.98"/>
<polygon fill="black" stroke="black" points="3169.09,-334.09 3162.99,-325.43 3162.36,-336.01 3169.09,-334.09"/>
</g>
<!-- :screen:home&#45;&gt;:widget:add&#45;transaction -->
<g id="edge83" class="edge">
<title>:screen:home&#45;&gt;:widget:add&#45;transaction</title>
<path fill="none" stroke="black" d="M3117.04,-442.79C3081.78,-439.09 3035.28,-434.63 2994,-432 2424.64,-395.7 1741.25,-383.67 1479.89,-380.22"/>
<polygon fill="black" stroke="black" points="1480.08,-376.73 1470.03,-380.1 1479.98,-383.73 1480.08,-376.73"/>
</g>
<!-- :screen:home&#45;&gt;:shared:ui:core -->
<g id="edge79" class="edge">
<title>:screen:home&#45;&gt;:shared:ui:core</title>
<path fill="none" stroke="black" d="M3138.57,-434.8C3069.04,-406.23 2906.71,-340.08 2769,-288 2736.63,-275.76 2700.02,-262.64 2671.31,-252.52"/>
<polygon fill="black" stroke="black" points="2672.74,-249.31 2662.14,-249.3 2670.41,-255.92 2672.74,-249.31"/>
</g>
<!-- :screen:import&#45;data&#45;&gt;:screen:onboarding -->
<g id="edge84" class="edge">
<title>:screen:import&#45;data&#45;&gt;:screen:onboarding</title>
<path fill="none" stroke="black" d="M2001.94,-506.58C2036.98,-495.58 2085.43,-480.37 2122.79,-468.64"/>
<polygon fill="black" stroke="black" points="2123.57,-472.07 2132.06,-465.73 2121.47,-465.39 2123.57,-472.07"/>
</g>
<!-- :screen:import&#45;data&#45;&gt;:shared:base -->
<g id="edge85" class="edge">
<title>:screen:import&#45;data&#45;&gt;:shared:base</title>
<path fill="none" stroke="black" d="M1873.73,-518.77C1548.07,-509.87 364.98,-476.99 327,-468 252.69,-450.41 222.45,-452.43 171,-396 119.85,-339.91 114,-310.91 114,-235 114,-235 114,-235 114,-161 114,-114.5 128.63,-95.07 169,-72 223.67,-40.76 2221.36,-22.8 2617.23,-19.54"/>
<polygon fill="black" stroke="black" points="2616.99,-23.04 2626.96,-19.46 2616.93,-16.04 2616.99,-23.04"/>
</g>
<!-- :screen:import&#45;data&#45;&gt;:shared:data -->
<g id="edge86" class="edge">
<title>:screen:import&#45;data&#45;&gt;:shared:data</title>
<path fill="none" stroke="black" d="M1874.12,-518.64C1702.14,-513.25 1290.81,-498.11 947,-468 683.18,-444.89 205.78,-574.58 361,-360 480.86,-194.31 597.11,-254.23 798,-216 1460.41,-89.95 3667.82,-89.67 4081.78,-90.76"/>
<polygon fill="black" stroke="black" points="4081.7,-94.26 4091.71,-90.78 4081.72,-87.26 4081.7,-94.26"/>
</g>
<!-- :screen:import&#45;data&#45;&gt;:shared:domain -->
<g id="edge87" class="edge">
<title>:screen:import&#45;data&#45;&gt;:shared:domain</title>
<path fill="none" stroke="black" d="M1874.15,-518.73C1647.17,-512.13 1023.98,-491.92 987,-468 949.61,-443.81 941,-423.53 941,-379 941,-379 941,-379 941,-305 941,-262.66 940.56,-240.64 975,-216 1031.95,-175.26 2069.26,-165.44 2367.45,-163.45"/>
<polygon fill="black" stroke="black" points="2367.09,-166.95 2377.07,-163.38 2367.04,-159.95 2367.09,-166.95"/>
</g>
<!-- :screen:import&#45;data&#45;&gt;:shared:ui:navigation -->
<g id="edge89" class="edge">
<title>:screen:import&#45;data&#45;&gt;:shared:ui:navigation</title>
<path fill="none" stroke="black" d="M1961.49,-503.67C1972.91,-470.47 2002.47,-397.87 2053,-360 2084.54,-336.36 2125.74,-323.25 2162.63,-315.98"/>
<polygon fill="black" stroke="black" points="2163.23,-319.43 2172.43,-314.18 2161.97,-312.54 2163.23,-319.43"/>
</g>
<!-- :screen:import&#45;data&#45;&gt;:temp:legacy&#45;code -->
<g id="edge90" class="edge">
<title>:screen:import&#45;data&#45;&gt;:temp:legacy&#45;code</title>
<path fill="none" stroke="black" d="M2037.58,-518.01C2205.27,-511.38 2577.31,-493.93 2629,-468 2656.15,-454.39 2677.95,-426.82 2691.53,-405.96"/>
<polygon fill="black" stroke="black" points="2694.4,-407.96 2696.72,-397.63 2688.46,-404.26 2694.4,-407.96"/>
</g>
<!-- :screen:import&#45;data&#45;&gt;:temp:old&#45;design -->
<g id="edge91" class="edge">
<title>:screen:import&#45;data&#45;&gt;:temp:old&#45;design</title>
<path fill="none" stroke="black" d="M2038.98,-520.15C2269.71,-517.3 2907.67,-506.05 2994,-468 3059.49,-439.14 3113.44,-371.32 3139.72,-333.56"/>
<polygon fill="black" stroke="black" points="3142.5,-335.69 3145.24,-325.46 3136.72,-331.75 3142.5,-335.69"/>
</g>
<!-- :screen:import&#45;data&#45;&gt;:shared:ui:core -->
<g id="edge88" class="edge">
<title>:screen:import&#45;data&#45;&gt;:shared:ui:core</title>
<path fill="none" stroke="black" d="M1957.23,-503.69C1960.5,-470.87 1972.28,-399.34 2014,-360 2065.48,-311.46 2088.22,-308.33 2156,-288 2288.43,-248.28 2450.24,-237.95 2543.87,-235.48"/>
<polygon fill="black" stroke="black" points="2543.8,-238.99 2553.71,-235.25 2543.63,-231.99 2543.8,-238.99"/>
</g>
<!-- :screen:loans&#45;&gt;:shared:base -->
<g id="edge92" class="edge">
<title>:screen:loans&#45;&gt;:shared:base</title>
<path fill="none" stroke="black" d="M4413.38,-437.43C4421.52,-435.46 4430,-433.56 4438,-432 4676.11,-385.69 4947,-477.57 4947,-235 4947,-235 4947,-235 4947,-161 4947,-6.95 4764.47,-94.04 4612,-72 4242.23,-18.54 3051.72,-18.02 2753.32,-18.76"/>
<polygon fill="black" stroke="black" points="2753.35,-15.26 2743.36,-18.78 2753.37,-22.26 2753.35,-15.26"/>
</g>
<!-- :screen:loans&#45;&gt;:shared:data -->
<g id="edge93" class="edge">
<title>:screen:loans&#45;&gt;:shared:data</title>
<path fill="none" stroke="black" d="M4413.4,-437.47C4460.95,-424.54 4531.85,-404.32 4542,-396 4628.62,-325 4634.84,-208.11 4543,-144 4491.49,-108.04 4314,-96.42 4215.75,-92.71"/>
<polygon fill="black" stroke="black" points="4216.1,-89.22 4205.98,-92.36 4215.85,-96.22 4216.1,-89.22"/>
</g>
<!-- :screen:loans&#45;&gt;:shared:domain -->
<g id="edge94" class="edge">
<title>:screen:loans&#45;&gt;:shared:domain</title>
<path fill="none" stroke="black" d="M4351.7,-432.54C4329.17,-412.98 4289.07,-380.44 4250,-360 4072.92,-267.35 4020.55,-252.22 3824,-216 3572.59,-169.67 2781.27,-163.76 2526.72,-163.07"/>
<polygon fill="black" stroke="black" points="2526.89,-159.57 2516.88,-163.04 2526.87,-166.57 2526.89,-159.57"/>
</g>
<!-- :screen:loans&#45;&gt;:shared:ui:navigation -->
<g id="edge96" class="edge">
<title>:screen:loans&#45;&gt;:shared:ui:navigation</title>
<path fill="none" stroke="black" d="M4327.82,-437.08C4319.33,-435.07 4310.43,-433.24 4302,-432 3959.07,-381.72 3867.7,-432.17 3523,-396 3424.9,-385.71 3402.1,-370.34 3304,-360 2966.83,-324.44 2880.57,-341.99 2542,-324 2477.66,-320.58 2405.26,-316.31 2349.15,-312.9"/>
<polygon fill="black" stroke="black" points="2349.5,-309.41 2339.3,-312.3 2349.07,-316.4 2349.5,-309.41"/>
</g>
<!-- :screen:loans&#45;&gt;:temp:legacy&#45;code -->
<g id="edge97" class="edge">
<title>:screen:loans&#45;&gt;:temp:legacy&#45;code</title>
<path fill="none" stroke="black" d="M4327.83,-436.99C4319.34,-434.99 4310.44,-433.18 4302,-432 4227.22,-421.53 3122.77,-390.45 2796.88,-381.46"/>
<polygon fill="black" stroke="black" points="2797.22,-377.97 2787.13,-381.19 2797.03,-384.97 2797.22,-377.97"/>
</g>
<!-- :screen:loans&#45;&gt;:temp:old&#45;design -->
<g id="edge98" class="edge">
<title>:screen:loans&#45;&gt;:temp:old&#45;design</title>
<path fill="none" stroke="black" d="M4327.81,-437.15C4319.32,-435.14 4310.42,-433.28 4302,-432 4026.06,-389.97 3946.27,-461.75 3675,-396 3636.71,-386.72 3631.97,-370.49 3594,-360 3474.38,-326.96 3330.69,-314.51 3241.59,-309.83"/>
<polygon fill="black" stroke="black" points="3241.87,-306.34 3231.71,-309.33 3241.52,-313.33 3241.87,-306.34"/>
</g>
<!-- :screen:loans&#45;&gt;:shared:ui:core -->
<g id="edge95" class="edge">
<title>:screen:loans&#45;&gt;:shared:ui:core</title>
<path fill="none" stroke="black" d="M4344.58,-433.32C4311.35,-413.49 4250.81,-379.57 4195,-360 4120.48,-333.87 4098.21,-340.57 4021,-324 3948.88,-308.53 3932.13,-297.61 3859,-288 3632.86,-258.27 2931.97,-241.43 2697.96,-236.52"/>
<polygon fill="black" stroke="black" points="2698.09,-233.02 2688.02,-236.31 2697.95,-240.02 2698.09,-233.02"/>
</g>
<!-- :screen:main&#45;&gt;:screen:home -->
<g id="edge100" class="edge">
<title>:screen:main&#45;&gt;:screen:home</title>
<path fill="none" stroke="black" d="M3907.13,-516.05C3766.05,-503.55 3395.7,-470.73 3241.7,-457.09"/>
<polygon fill="black" stroke="black" points="3242.33,-453.63 3232.06,-456.23 3241.71,-460.6 3242.33,-453.63"/>
</g>
<!-- :screen:main&#45;&gt;:shared:base -->
<g id="edge101" class="edge">
<title>:screen:main&#45;&gt;:shared:base</title>
<path fill="none" stroke="black" d="M4021.5,-520.43C4213.47,-518.2 4822.89,-508.04 5015,-468 5124.74,-445.13 5251,-491.1 5251,-379 5251,-379 5251,-379 5251,-161 5251,-35.91 5107.23,-93.46 4984,-72 4759.72,-32.95 3110.04,-21.41 2753.02,-19.36"/>
<polygon fill="black" stroke="black" points="2753.13,-15.86 2743.11,-19.3 2753.09,-22.86 2753.13,-15.86"/>
</g>
<!-- :screen:main&#45;&gt;:shared:data -->
<g id="edge102" class="edge">
<title>:screen:main&#45;&gt;:shared:data</title>
<path fill="none" stroke="black" d="M4021.64,-520.1C4202.31,-516.94 4748.64,-504.56 4922,-468 5010.77,-449.28 5061.39,-470.61 5113,-396 5144.24,-350.84 5149.47,-294.12 5075,-216 5001.68,-139.08 4951.34,-164.16 4847,-144 4618.47,-99.85 4341.21,-92.1 4216.04,-90.99"/>
<polygon fill="black" stroke="black" points="4216.31,-87.49 4206.28,-90.92 4216.26,-94.49 4216.31,-87.49"/>
</g>
<!-- :screen:main&#45;&gt;:shared:domain -->
<g id="edge103" class="edge">
<title>:screen:main&#45;&gt;:shared:domain</title>
<path fill="none" stroke="black" d="M4021.47,-519.9C4222.35,-515.82 4873.6,-500.16 4904,-468 4914.99,-456.37 4913.9,-444.57 4904,-432 4777.43,-271.25 4211.73,-243.61 4009,-216 3718.11,-176.38 2802.94,-165.87 2526.71,-163.57"/>
<polygon fill="black" stroke="black" points="2526.75,-160.07 2516.72,-163.49 2526.69,-167.07 2526.75,-160.07"/>
</g>
<!-- :screen:main&#45;&gt;:shared:ui:navigation -->
<g id="edge105" class="edge">
<title>:screen:main&#45;&gt;:shared:ui:navigation</title>
<path fill="none" stroke="black" d="M3904.62,-519.36C3737.13,-514.34 3257.23,-497.71 3103,-468 3052.9,-458.35 3042.78,-446.96 2994,-432 2937.91,-414.8 2921.64,-417.37 2867,-396 2834.05,-383.12 2829.97,-369.89 2796,-360 2714.91,-336.39 2483,-319.92 2350.3,-312.12"/>
<polygon fill="black" stroke="black" points="2350.65,-308.64 2340.46,-311.55 2350.24,-315.63 2350.65,-308.64"/>
</g>
<!-- :screen:main&#45;&gt;:temp:legacy&#45;code -->
<g id="edge106" class="edge">
<title>:screen:main&#45;&gt;:temp:legacy&#45;code</title>
<path fill="none" stroke="black" d="M3905.04,-519.05C3683.59,-511.5 2900.7,-483.8 2850,-468 2849.62,-467.88 2785.05,-427.66 2742.82,-401.33"/>
<polygon fill="black" stroke="black" points="2744.76,-398.42 2734.42,-396.1 2741.06,-404.36 2744.76,-398.42"/>
</g>
<!-- :screen:main&#45;&gt;:temp:old&#45;design -->
<g id="edge107" class="edge">
<title>:screen:main&#45;&gt;:temp:old&#45;design</title>
<path fill="none" stroke="black" d="M3912.01,-512.92C3812.08,-496.37 3584.09,-455.16 3399,-396 3359.92,-383.51 3352.35,-374.57 3314,-360 3280.35,-347.21 3242.08,-334.27 3211.76,-324.37"/>
<polygon fill="black" stroke="black" points="3213,-321.09 3202.4,-321.33 3210.83,-327.75 3213,-321.09"/>
</g>
<!-- :screen:main&#45;&gt;:shared:ui:core -->
<g id="edge104" class="edge">
<title>:screen:main&#45;&gt;:shared:ui:core</title>
<path fill="none" stroke="black" d="M4005.17,-509.23C4038.77,-498.9 4081.82,-483.18 4092,-468 4100.91,-454.71 4099.43,-446.17 4092,-432 4065.91,-382.2 4040.28,-380.66 3988,-360 3886.46,-319.88 3847.36,-361.97 3745,-324 3716.91,-313.58 3716.57,-297.04 3688,-288 3594.48,-258.41 2926.87,-241.53 2697.86,-236.56"/>
<polygon fill="black" stroke="black" points="2698.23,-233.07 2688.16,-236.35 2698.08,-240.07 2698.23,-233.07"/>
</g>
<!-- :screen:accounts -->
<g id="node31" class="node">
<title>:screen:accounts</title>
<ellipse fill="none" stroke="black" cx="4011" cy="-450" rx="71.82" ry="18"/>
<text text-anchor="middle" x="4011" y="-444.95" font-family="Times,serif" font-size="14.00">:screen:accounts</text>
</g>
<!-- :screen:main&#45;&gt;:screen:accounts -->
<g id="edge99" class="edge">
<title>:screen:main&#45;&gt;:screen:accounts</title>
<path fill="none" stroke="black" d="M3974.62,-504.05C3980.16,-495.97 3986.92,-486.12 3993.09,-477.11"/>
<polygon fill="black" stroke="black" points="3995.86,-479.26 3998.63,-469.04 3990.09,-475.31 3995.86,-479.26"/>
</g>
<!-- :screen:onboarding&#45;&gt;:shared:base -->
<g id="edge108" class="edge">
<title>:screen:onboarding&#45;&gt;:shared:base</title>
<path fill="none" stroke="black" d="M2160.25,-432.14C2150.08,-422.31 2137.83,-409.27 2129,-396 2109.6,-366.85 2104.27,-358.26 2097,-324 2079.79,-242.89 2086.52,-201.76 2146,-144 2192.27,-99.07 2210.85,-92.5 2272,-72 2389.02,-32.78 2533.63,-22.3 2617,-19.67"/>
<polygon fill="black" stroke="black" points="2616.93,-23.17 2626.83,-19.39 2616.74,-16.18 2616.93,-23.17"/>
</g>
<!-- :screen:onboarding&#45;&gt;:shared:data -->
<g id="edge109" class="edge">
<title>:screen:onboarding&#45;&gt;:shared:data</title>
<path fill="none" stroke="black" d="M2166.12,-431.75C2159.35,-421.8 2151.52,-408.77 2147,-396 2120.28,-320.59 2096.19,-276.96 2148,-216 2215.17,-136.96 2267.8,-161.72 2370,-144 2540.86,-114.37 3780.06,-95.95 4082.54,-91.86"/>
<polygon fill="black" stroke="black" points="4082.27,-95.37 4092.22,-91.73 4082.18,-88.37 4082.27,-95.37"/>
</g>
<!-- :screen:onboarding&#45;&gt;:shared:domain -->
<g id="edge110" class="edge">
<title>:screen:onboarding&#45;&gt;:shared:domain</title>
<path fill="none" stroke="black" d="M2172.43,-431.94C2163.66,-408.18 2148.59,-363.58 2143,-324 2135.78,-272.84 2143.84,-245.87 2186,-216 2215.65,-195 2307.26,-179.81 2373.58,-171.21"/>
<polygon fill="black" stroke="black" points="2373.84,-174.7 2383.32,-169.97 2372.96,-167.76 2373.84,-174.7"/>
</g>
<!-- :screen:onboarding&#45;&gt;:shared:ui:navigation -->
<g id="edge112" class="edge">
<title>:screen:onboarding&#45;&gt;:shared:ui:navigation</title>
<path fill="none" stroke="black" d="M2181.62,-431.68C2184.98,-413.04 2191.99,-382.97 2205,-360 2210.68,-349.96 2218.61,-340.29 2226.44,-332.02"/>
<polygon fill="black" stroke="black" points="2228.82,-334.59 2233.39,-325.03 2223.86,-329.65 2228.82,-334.59"/>
</g>
<!-- :screen:onboarding&#45;&gt;:temp:legacy&#45;code -->
<g id="edge113" class="edge">
<title>:screen:onboarding&#45;&gt;:temp:legacy&#45;code</title>
<path fill="none" stroke="black" d="M2237.97,-437.28C2248.29,-435.4 2258.94,-433.56 2269,-432 2392.28,-412.92 2535.97,-396.67 2624.21,-387.36"/>
<polygon fill="black" stroke="black" points="2624.4,-390.86 2633.98,-386.34 2623.67,-383.9 2624.4,-390.86"/>
</g>
<!-- :screen:onboarding&#45;&gt;:temp:old&#45;design -->
<g id="edge114" class="edge">
<title>:screen:onboarding&#45;&gt;:temp:old&#45;design</title>
<path fill="none" stroke="black" d="M2225.55,-434.87C2300.81,-412.23 2446.13,-369.39 2499,-360 2702.53,-323.84 2945.9,-312.33 3071.93,-308.68"/>
<polygon fill="black" stroke="black" points="3071.98,-312.18 3081.88,-308.4 3071.78,-305.18 3071.98,-312.18"/>
</g>
<!-- :screen:onboarding&#45;&gt;:shared:ui:core -->
<g id="edge111" class="edge">
<title>:screen:onboarding&#45;&gt;:shared:ui:core</title>
<path fill="none" stroke="black" d="M2208.93,-433.03C2264.94,-403.33 2389.6,-338.08 2497,-288 2522.58,-276.07 2551.56,-263.63 2575.07,-253.8"/>
<polygon fill="black" stroke="black" points="2576.17,-257.13 2584.06,-250.06 2573.48,-250.67 2576.17,-257.13"/>
</g>
<!-- :screen:piechart&#45;&gt;:shared:base -->
<g id="edge115" class="edge">
<title>:screen:piechart&#45;&gt;:shared:base</title>
<path fill="none" stroke="black" d="M4274.19,-437.19C4283.41,-435.27 4292.97,-433.44 4302,-432 4456.41,-407.31 4509.07,-459.43 4652,-396 4759.53,-348.28 4803.06,-238.51 4733,-144 4667.44,-55.56 4604.64,-89.77 4496,-72 4150.98,-15.58 3039.64,-17.18 2752.97,-18.58"/>
<polygon fill="black" stroke="black" points="2753.03,-15.08 2743.05,-18.63 2753.06,-22.08 2753.03,-15.08"/>
</g>
<!-- :screen:piechart&#45;&gt;:shared:data -->
<g id="edge116" class="edge">
<title>:screen:piechart&#45;&gt;:shared:data</title>
<path fill="none" stroke="black" d="M4275.13,-437.56C4284.07,-435.64 4293.3,-433.72 4302,-432 4391.89,-414.24 4427.8,-445.36 4505,-396 4545.61,-370.03 4567,-355.21 4567,-307 4567,-307 4567,-307 4567,-233 4567,-184.79 4545.97,-169.41 4505,-144 4457.75,-114.7 4304.17,-100.53 4214.92,-94.61"/>
<polygon fill="black" stroke="black" points="4215.28,-91.12 4205.08,-93.97 4214.83,-98.11 4215.28,-91.12"/>
</g>
<!-- :screen:piechart&#45;&gt;:shared:domain -->
<g id="edge117" class="edge">
<title>:screen:piechart&#45;&gt;:shared:domain</title>
<path fill="none" stroke="black" d="M4201.01,-432.56C4135.23,-386.69 3939,-257.92 3753,-216 3517.79,-162.99 2773.18,-161.47 2526.93,-162.48"/>
<polygon fill="black" stroke="black" points="2527.08,-158.98 2517.1,-162.52 2527.11,-165.98 2527.08,-158.98"/>
</g>
<!-- :screen:piechart&#45;&gt;:shared:ui:navigation -->
<g id="edge119" class="edge">
<title>:screen:piechart&#45;&gt;:shared:ui:navigation</title>
<path fill="none" stroke="black" d="M4164.64,-440.39C4141.95,-437.35 4115.82,-434.16 4092,-432 3789.26,-404.57 3711.42,-426.77 3409,-396 3302.57,-385.17 3277.41,-371.07 3171,-360 2892.49,-331.03 2821.54,-340.25 2542,-324 2477.79,-320.27 2405.54,-316 2349.47,-312.68"/>
<polygon fill="black" stroke="black" points="2349.82,-309.19 2339.63,-312.09 2349.4,-316.18 2349.82,-309.19"/>
</g>
<!-- :screen:piechart&#45;&gt;:temp:legacy&#45;code -->
<g id="edge120" class="edge">
<title>:screen:piechart&#45;&gt;:temp:legacy&#45;code</title>
<path fill="none" stroke="black" d="M4164.98,-440.25C4142.22,-437.18 4115.95,-434 4092,-432 3839.03,-410.91 3062.26,-388.58 2796.93,-381.38"/>
<polygon fill="black" stroke="black" points="2797.05,-377.89 2786.96,-381.11 2796.86,-384.88 2797.05,-377.89"/>
</g>
<!-- :screen:piechart&#45;&gt;:temp:old&#45;design -->
<g id="edge121" class="edge">
<title>:screen:piechart&#45;&gt;:temp:old&#45;design</title>
<path fill="none" stroke="black" d="M4163.95,-440.63C4141.41,-437.66 4115.56,-434.45 4092,-432 3890.23,-411.04 3836.11,-434.79 3637,-396 3584.85,-385.84 3574.8,-371.85 3523,-360 3425.22,-337.64 3310.47,-322.83 3235.89,-314.69"/>
<polygon fill="black" stroke="black" points="3236.55,-311.24 3226.23,-313.65 3235.8,-318.2 3236.55,-311.24"/>
</g>
<!-- :screen:piechart&#45;&gt;:shared:ui:core -->
<g id="edge118" class="edge">
<title>:screen:piechart&#45;&gt;:shared:ui:core</title>
<path fill="none" stroke="black" d="M4217.23,-431.77C4208.16,-411.13 4190.02,-377.2 4163,-360 4080.16,-307.27 4041.77,-340.7 3945,-324 3856,-308.64 3834.75,-298.15 3745,-288 3353.27,-243.7 2880.7,-236.31 2698.15,-235.16"/>
<polygon fill="black" stroke="black" points="2698.34,-231.67 2688.32,-235.11 2698.3,-238.67 2698.34,-231.67"/>
</g>
<!-- :screen:planned&#45;payments&#45;&gt;:shared:base -->
<g id="edge122" class="edge">
<title>:screen:planned&#45;payments&#45;&gt;:shared:base</title>
<path fill="none" stroke="black" d="M4876.71,-439.79C4933.46,-431.9 4999.33,-418.2 5017,-396 5114.14,-273.93 5031.58,-116.29 4882,-72 4777.61,-41.09 3112.47,-23.16 2753.04,-19.64"/>
<polygon fill="black" stroke="black" points="2753.1,-16.14 2743.07,-19.55 2753.03,-23.14 2753.1,-16.14"/>
</g>
<!-- :screen:planned&#45;payments&#45;&gt;:shared:data -->
<g id="edge123" class="edge">
<title>:screen:planned&#45;payments&#45;&gt;:shared:data</title>
<path fill="none" stroke="black" d="M4884.36,-442.03C4953.43,-432.71 5028.97,-410.91 4999,-360 4898.69,-189.57 4798.29,-204.45 4610,-144 4474.84,-100.6 4307.32,-91.84 4216.04,-90.59"/>
<polygon fill="black" stroke="black" points="4216.3,-87.09 4206.27,-90.48 4216.23,-94.09 4216.3,-87.09"/>
</g>
<!-- :screen:planned&#45;payments&#45;&gt;:shared:domain -->
<g id="edge124" class="edge">
<title>:screen:planned&#45;payments&#45;&gt;:shared:domain</title>
<path fill="none" stroke="black" d="M4775.91,-431.77C4745.39,-386.15 4654.96,-262.52 4543,-216 4448.39,-176.69 2898.61,-165.53 2526.74,-163.41"/>
<polygon fill="black" stroke="black" points="2526.84,-159.91 2516.82,-163.35 2526.8,-166.91 2526.84,-159.91"/>
</g>
<!-- :screen:planned&#45;payments&#45;&gt;:shared:ui:navigation -->
<g id="edge126" class="edge">
<title>:screen:planned&#45;payments&#45;&gt;:shared:ui:navigation</title>
<path fill="none" stroke="black" d="M4700.38,-438.94C4675.73,-436.35 4648.83,-433.8 4624,-432 4232.26,-403.61 4131.22,-440.68 3741,-396 3655.61,-386.22 3636.41,-369.56 3551,-360 3105.05,-310.09 2990.23,-345.22 2542,-324 2477.52,-320.95 2404.98,-316.66 2348.83,-313.15"/>
<polygon fill="black" stroke="black" points="2349.17,-309.67 2338.98,-312.54 2348.74,-316.66 2349.17,-309.67"/>
</g>
<!-- :screen:planned&#45;payments&#45;&gt;:temp:legacy&#45;code -->
<g id="edge127" class="edge">
<title>:screen:planned&#45;payments&#45;&gt;:temp:legacy&#45;code</title>
<path fill="none" stroke="black" d="M4701.24,-438.82C4676.36,-436.2 4649.13,-433.66 4624,-432 4262.02,-408.15 3127.24,-386.5 2797.62,-380.59"/>
<polygon fill="black" stroke="black" points="2797.81,-377.09 2787.75,-380.41 2797.69,-384.09 2797.81,-377.09"/>
</g>
<!-- :screen:planned&#45;payments&#45;&gt;:temp:old&#45;design -->
<g id="edge128" class="edge">
<title>:screen:planned&#45;payments&#45;&gt;:temp:old&#45;design</title>
<path fill="none" stroke="black" d="M4700.38,-438.97C4675.73,-436.39 4648.83,-433.83 4624,-432 4530.83,-425.15 3871.1,-429.78 3784,-396 3760.76,-386.99 3764.02,-369.56 3741,-360 3653.1,-323.48 3382.02,-312.03 3242.26,-308.52"/>
<polygon fill="black" stroke="black" points="3242.39,-305.02 3232.31,-308.27 3242.22,-312.02 3242.39,-305.02"/>
</g>
<!-- :screen:planned&#45;payments&#45;&gt;:shared:ui:core -->
<g id="edge125" class="edge">
<title>:screen:planned&#45;payments&#45;&gt;:shared:ui:core</title>
<path fill="none" stroke="black" d="M4734.3,-433.98C4614.72,-400.66 4313.16,-320.89 4055,-288 3788.94,-254.1 2956.01,-239.73 2697.98,-236.02"/>
<polygon fill="black" stroke="black" points="2698.06,-232.52 2688.01,-235.88 2697.96,-239.52 2698.06,-232.52"/>
</g>
<!-- :screen:releases&#45;&gt;:shared:base -->
<g id="edge129" class="edge">
<title>:screen:releases&#45;&gt;:shared:base</title>
<path fill="none" stroke="black" d="M3862.05,-359.67C3861.18,-306.08 3850.4,-142.4 3754,-72 3713.53,-42.44 2982.01,-25.06 2752.97,-20.33"/>
<polygon fill="black" stroke="black" points="2753.07,-16.83 2743,-20.12 2752.93,-23.83 2753.07,-16.83"/>
</g>
<!-- :screen:releases&#45;&gt;:shared:domain -->
<g id="edge130" class="edge">
<title>:screen:releases&#45;&gt;:shared:domain</title>
<path fill="none" stroke="black" d="M3834.72,-361.17C3795.44,-338.14 3720.98,-293.61 3660,-252 3637.97,-236.97 3637.1,-225.01 3612,-216 3510.58,-179.61 2772.3,-167.09 2526.42,-163.91"/>
<polygon fill="black" stroke="black" points="2526.65,-160.41 2516.6,-163.78 2526.56,-167.41 2526.65,-160.41"/>
</g>
<!-- :screen:releases&#45;&gt;:shared:ui:navigation -->
<g id="edge132" class="edge">
<title>:screen:releases&#45;&gt;:shared:ui:navigation</title>
<path fill="none" stroke="black" d="M3804.9,-367.67C3784.76,-364.72 3761.93,-361.78 3741,-360 3209.79,-314.85 3074.6,-347.71 2542,-324 2477.4,-321.12 2404.71,-316.83 2348.52,-313.27"/>
<polygon fill="black" stroke="black" points="2348.86,-309.78 2338.66,-312.64 2348.41,-316.77 2348.86,-309.78"/>
</g>
<!-- :screen:releases&#45;&gt;:shared:ui:core -->
<g id="edge131" class="edge">
<title>:screen:releases&#45;&gt;:shared:ui:core</title>
<path fill="none" stroke="black" d="M3809.31,-366.21C3799.25,-364.15 3788.8,-362.01 3779,-360 3700.78,-343.99 3675.82,-356.75 3603,-324 3578.68,-313.06 3580.05,-297.15 3555,-288 3475.55,-258.99 2906.96,-242.1 2697.89,-236.81"/>
<polygon fill="black" stroke="black" points="2698.02,-233.31 2687.93,-236.56 2697.84,-240.31 2698.02,-233.31"/>
</g>
<!-- :screen:reports&#45;&gt;:shared:base -->
<g id="edge133" class="edge">
<title>:screen:reports&#45;&gt;:shared:base</title>
<path fill="none" stroke="black" d="M3878.63,-439.87C3962.67,-425.75 4115.29,-399.86 4127,-396 4194.96,-373.6 4230.88,-383.25 4271,-324 4335.43,-228.83 4313.9,-127.02 4213,-72 4148.17,-36.65 3041.38,-22.71 2753.16,-19.67"/>
<polygon fill="black" stroke="black" points="2753.2,-16.17 2743.17,-19.56 2753.13,-23.17 2753.2,-16.17"/>
</g>
<!-- :screen:reports&#45;&gt;:shared:data -->
<g id="edge134" class="edge">
<title>:screen:reports&#45;&gt;:shared:data</title>
<path fill="none" stroke="black" d="M3873.93,-438.21C3988.99,-412.64 4263,-347.5 4263,-307 4263,-307 4263,-307 4263,-233 4263,-192.03 4263.83,-176.59 4239,-144 4227.53,-128.95 4210.46,-117.36 4194.26,-108.92"/>
<polygon fill="black" stroke="black" points="4196.22,-105.98 4185.7,-104.73 4193.15,-112.27 4196.22,-105.98"/>
</g>
<!-- :screen:reports&#45;&gt;:shared:domain -->
<g id="edge135" class="edge">
<title>:screen:reports&#45;&gt;:shared:domain</title>
<path fill="none" stroke="black" d="M3881.95,-441.3C3909.86,-434.35 3940.91,-421.14 3958,-396 3967,-382.77 3966.59,-373.5 3958,-360 3952.93,-352.03 3659.17,-218.25 3650,-216 3436.24,-163.53 2760.22,-161.52 2527.01,-162.46"/>
<polygon fill="black" stroke="black" points="2527.08,-158.96 2517.1,-162.5 2527.11,-165.96 2527.08,-158.96"/>
</g>
<!-- :screen:reports&#45;&gt;:shared:ui:navigation -->
<g id="edge137" class="edge">
<title>:screen:reports&#45;&gt;:shared:ui:navigation</title>
<path fill="none" stroke="black" d="M3758.65,-448.94C3626.82,-447.83 3320.07,-440.24 3067,-396 3009.21,-385.9 2997.76,-370.31 2940,-360 2883.36,-349.89 2523.4,-324.98 2348.77,-313.27"/>
<polygon fill="black" stroke="black" points="2349.01,-309.78 2338.8,-312.6 2348.54,-316.76 2349.01,-309.78"/>
</g>
<!-- :screen:reports&#45;&gt;:temp:legacy&#45;code -->
<g id="edge138" class="edge">
<title>:screen:reports&#45;&gt;:temp:legacy&#45;code</title>
<path fill="none" stroke="black" d="M3760.74,-445.04C3571.79,-433.19 3011.22,-398.06 2794.18,-384.46"/>
<polygon fill="black" stroke="black" points="2794.58,-380.98 2784.38,-383.85 2794.14,-387.97 2794.58,-380.98"/>
</g>
<!-- :screen:reports&#45;&gt;:temp:old&#45;design -->
<g id="edge139" class="edge">
<title>:screen:reports&#45;&gt;:temp:old&#45;design</title>
<path fill="none" stroke="black" d="M3762.11,-443.85C3693.41,-437.09 3579.72,-422.8 3485,-396 3445.13,-384.72 3438.51,-372.48 3399,-360 3342.31,-342.09 3276.28,-328.07 3227.53,-318.96"/>
<polygon fill="black" stroke="black" points="3228.42,-315.56 3217.95,-317.19 3227.15,-322.45 3228.42,-315.56"/>
</g>
<!-- :screen:reports&#45;&gt;:shared:ui:core -->
<g id="edge136" class="edge">
<title>:screen:reports&#45;&gt;:shared:ui:core</title>
<path fill="none" stroke="black" d="M3875.87,-438.75C3899.69,-431.18 3925.76,-418.17 3940,-396 3948.65,-382.54 3950.62,-371.97 3940,-360 3895.6,-309.93 3703.11,-348.93 3641,-324 3616.25,-314.07 3618.06,-297.12 3593,-288 3509.91,-257.77 2913.11,-241.54 2698.02,-236.63"/>
<polygon fill="black" stroke="black" points="2698.13,-233.13 2688.05,-236.41 2697.97,-240.13 2698.13,-233.13"/>
</g>
<!-- :screen:search&#45;&gt;:shared:base -->
<g id="edge140" class="edge">
<title>:screen:search&#45;&gt;:shared:base</title>
<path fill="none" stroke="black" d="M2917.76,-431.56C2903.27,-374.74 2851.3,-191.75 2756,-72 2746.31,-59.82 2733.18,-48.99 2720.85,-40.34"/>
<polygon fill="black" stroke="black" points="2723.16,-37.67 2712.91,-35.01 2719.26,-43.49 2723.16,-37.67"/>
</g>
<!-- :screen:search&#45;&gt;:shared:data -->
<g id="edge141" class="edge">
<title>:screen:search&#45;&gt;:shared:data</title>
<path fill="none" stroke="black" d="M2980.22,-442.78C3015.68,-439.17 3061.91,-434.81 3103,-432 3195.87,-425.65 3858.6,-441.16 3940,-396 3997.68,-364 4097.44,-186.83 4134.55,-118.18"/>
<polygon fill="black" stroke="black" points="4137.58,-119.93 4139.23,-109.47 4131.41,-116.62 4137.58,-119.93"/>
</g>
<!-- :screen:search&#45;&gt;:shared:domain -->
<g id="edge142" class="edge">
<title>:screen:search&#45;&gt;:shared:domain</title>
<path fill="none" stroke="black" d="M2890.31,-434.07C2871.57,-424.5 2847.88,-411.07 2829,-396 2812.03,-382.46 2815.2,-370.12 2796,-360 2695.12,-306.86 2636.79,-387.36 2542,-324 2529.41,-315.59 2484.7,-233.89 2461.38,-190.22"/>
<polygon fill="black" stroke="black" points="2464.58,-188.77 2456.79,-181.59 2458.4,-192.06 2464.58,-188.77"/>
</g>
<!-- :screen:search&#45;&gt;:shared:ui:navigation -->
<g id="edge144" class="edge">
<title>:screen:search&#45;&gt;:shared:ui:navigation</title>
<path fill="none" stroke="black" d="M2867.42,-440.62C2806.42,-430.99 2704.79,-414.15 2618,-396 2511.7,-373.76 2389.26,-342.68 2316.93,-323.75"/>
<polygon fill="black" stroke="black" points="2318.22,-320.47 2307.65,-321.32 2316.44,-327.24 2318.22,-320.47"/>
</g>
<!-- :screen:search&#45;&gt;:temp:legacy&#45;code -->
<g id="edge145" class="edge">
<title>:screen:search&#45;&gt;:temp:legacy&#45;code</title>
<path fill="none" stroke="black" d="M2881.56,-435.83C2847.68,-424.8 2799.01,-408.96 2761.66,-396.8"/>
<polygon fill="black" stroke="black" points="2762.99,-393.55 2752.4,-393.78 2760.82,-400.2 2762.99,-393.55"/>
</g>
<!-- :screen:search&#45;&gt;:temp:old&#45;design -->
<g id="edge146" class="edge">
<title>:screen:search&#45;&gt;:temp:old&#45;design</title>
<path fill="none" stroke="black" d="M2948.05,-433.26C2990,-407.91 3072.64,-357.97 3120.47,-329.08"/>
<polygon fill="black" stroke="black" points="3122.07,-332.2 3128.82,-324.03 3118.45,-326.2 3122.07,-332.2"/>
</g>
<!-- :screen:search&#45;&gt;:shared:ui:core -->
<g id="edge143" class="edge">
<title>:screen:search&#45;&gt;:shared:ui:core</title>
<path fill="none" stroke="black" d="M2905.89,-432.14C2887.87,-413.64 2857.46,-383.44 2829,-360 2786.17,-324.72 2774.62,-316.49 2727,-288 2706.95,-276 2683.82,-264.22 2664.3,-254.82"/>
<polygon fill="black" stroke="black" points="2666.06,-251.78 2655.52,-250.64 2663.05,-258.1 2666.06,-251.78"/>
</g>
<!-- :screen:settings&#45;&gt;:shared:base -->
<g id="edge147" class="edge">
<title>:screen:settings&#45;&gt;:shared:base</title>
<path fill="none" stroke="black" d="M3434.01,-518.85C3736.08,-509.15 4956.52,-469.86 4961,-468 5073.1,-421.58 5098.6,-332.87 5066,-216 5042.67,-132.37 5015.96,-100.63 4934,-72 4828.62,-35.19 3117.48,-21.86 2752.95,-19.43"/>
<polygon fill="black" stroke="black" points="2753.1,-15.93 2743.07,-19.36 2753.05,-22.93 2753.1,-15.93"/>
</g>
<!-- :screen:settings&#45;&gt;:shared:data -->
<g id="edge148" class="edge">
<title>:screen:settings&#45;&gt;:shared:data</title>
<path fill="none" stroke="black" d="M3434.1,-518.8C3728.92,-509.14 4895.09,-470.76 4904,-468 4960.88,-450.35 4988.36,-448.21 5017,-396 5063.6,-311.05 4977.64,-264.91 4894,-216 4810.64,-167.25 4783.29,-164.87 4689,-144 4521.4,-106.91 4318.79,-95.77 4215.93,-92.43"/>
<polygon fill="black" stroke="black" points="4216.11,-88.93 4206,-92.12 4215.89,-95.93 4216.11,-88.93"/>
</g>
<!-- :screen:settings&#45;&gt;:shared:domain -->
<g id="edge149" class="edge">
<title>:screen:settings&#45;&gt;:shared:domain</title>
<path fill="none" stroke="black" d="M3433.97,-518.79C3692.75,-510.19 4613.61,-478.84 4624,-468 4635.07,-456.45 4633.73,-444.7 4624,-432 4512.04,-285.8 4006.05,-243.72 3824,-216 3571.27,-177.52 2780.83,-166.35 2526.61,-163.71"/>
<polygon fill="black" stroke="black" points="2526.82,-160.21 2516.78,-163.61 2526.75,-167.21 2526.82,-160.21"/>
</g>
<!-- :screen:settings&#45;&gt;:shared:ui:navigation -->
<g id="edge151" class="edge">
<title>:screen:settings&#45;&gt;:shared:ui:navigation</title>
<path fill="none" stroke="black" d="M3299.91,-518.77C3186.11,-514.2 2948.28,-501.25 2750,-468 2620.73,-446.32 2588.27,-437.7 2464,-396 2405.29,-376.3 2339.94,-347.46 2297.98,-327.99"/>
<polygon fill="black" stroke="black" points="2299.48,-324.83 2288.94,-323.77 2296.52,-331.17 2299.48,-324.83"/>
</g>
<!-- :screen:settings&#45;&gt;:temp:legacy&#45;code -->
<g id="edge152" class="edge">
<title>:screen:settings&#45;&gt;:temp:legacy&#45;code</title>
<path fill="none" stroke="black" d="M3299.22,-520.09C3169.03,-517.46 2889.19,-507.27 2802,-468 2770.95,-454.01 2743.53,-425.65 2726.23,-404.69"/>
<polygon fill="black" stroke="black" points="2729.16,-402.75 2720.19,-397.12 2723.69,-407.12 2729.16,-402.75"/>
</g>
<!-- :screen:settings&#45;&gt;:temp:old&#45;design -->
<g id="edge153" class="edge">
<title>:screen:settings&#45;&gt;:temp:old&#45;design</title>
<path fill="none" stroke="black" d="M3362.62,-504.01C3353.49,-471.73 3329.46,-401.1 3285,-360 3266.55,-342.95 3241.85,-330.98 3219.06,-322.8"/>
<polygon fill="black" stroke="black" points="3220.44,-319.57 3209.85,-319.68 3218.2,-326.2 3220.44,-319.57"/>
</g>
<!-- :screen:settings&#45;&gt;:widget:balance -->
<g id="edge154" class="edge">
<title>:screen:settings&#45;&gt;:widget:balance</title>
<path fill="none" stroke="black" d="M3299.27,-520.78C3037.05,-519.62 2063.35,-512.4 1263,-468 1222.26,-465.74 1176.9,-461.94 1139.89,-458.51"/>
<polygon fill="black" stroke="black" points="1140.48,-455.04 1130.19,-457.59 1139.82,-462.01 1140.48,-455.04"/>
</g>
<!-- :screen:settings&#45;&gt;:shared:ui:core -->
<g id="edge150" class="edge">
<title>:screen:settings&#45;&gt;:shared:ui:core</title>
<path fill="none" stroke="black" d="M3367.5,-503.8C3367.52,-485.51 3366.08,-455.99 3358,-432 3331.61,-353.58 3315.26,-322.38 3240,-288 3145.44,-244.8 2842.27,-236.61 2698.31,-235.2"/>
<polygon fill="black" stroke="black" points="2698.51,-231.7 2688.48,-235.11 2698.45,-238.7 2698.51,-231.7"/>
</g>
<!-- :screen:transactions&#45;&gt;:shared:base -->
<g id="edge155" class="edge">
<title>:screen:transactions&#45;&gt;:shared:base</title>
<path fill="none" stroke="black" d="M4589.89,-436.83C4712.73,-410.63 4985,-347.93 4985,-307 4985,-307 4985,-307 4985,-161 4985,-118.9 5185.08,-156.34 4787,-72 4584.56,-29.11 3091.73,-20.62 2753.16,-19.24"/>
<polygon fill="black" stroke="black" points="2753.36,-15.74 2743.35,-19.2 2753.34,-22.74 2753.36,-15.74"/>
</g>
<!-- :screen:transactions&#45;&gt;:shared:data -->
<g id="edge156" class="edge">
<title>:screen:transactions&#45;&gt;:shared:data</title>
<path fill="none" stroke="black" d="M4547.35,-432.12C4567.97,-409.6 4602.49,-367.48 4617,-324 4642.98,-246.17 4644.95,-188.47 4576,-144 4517.91,-106.53 4320.66,-95.54 4215.81,-92.32"/>
<polygon fill="black" stroke="black" points="4216.03,-88.83 4205.93,-92.04 4215.83,-95.82 4216.03,-88.83"/>
</g>
<!-- :screen:transactions&#45;&gt;:shared:domain -->
<g id="edge157" class="edge">
<title>:screen:transactions&#45;&gt;:shared:domain</title>
<path fill="none" stroke="black" d="M4501.47,-432.83C4415.41,-386.8 4156.08,-255.8 3922,-216 3650.22,-169.79 2793.24,-163.82 2526.83,-163.09"/>
<polygon fill="black" stroke="black" points="2526.87,-159.59 2516.86,-163.06 2526.85,-166.59 2526.87,-159.59"/>
</g>
<!-- :screen:transactions&#45;&gt;:shared:ui:navigation -->
<g id="edge159" class="edge">
<title>:screen:transactions&#45;&gt;:shared:ui:navigation</title>
<path fill="none" stroke="black" d="M4471.64,-436.91C4460.5,-435 4448.93,-433.24 4438,-432 4087.45,-392.19 3995.87,-432.94 3645,-396 3547.77,-385.77 3525.25,-370 3428,-360 3035.97,-319.67 2935.61,-343.61 2542,-324 2477.65,-320.79 2405.25,-316.52 2349.14,-313.06"/>
<polygon fill="black" stroke="black" points="2349.49,-309.57 2339.29,-312.45 2349.06,-316.56 2349.49,-309.57"/>
</g>
<!-- :screen:transactions&#45;&gt;:temp:legacy&#45;code -->
<g id="edge160" class="edge">
<title>:screen:transactions&#45;&gt;:temp:legacy&#45;code</title>
<path fill="none" stroke="black" d="M4472.16,-436.87C4460.86,-434.93 4449.1,-433.18 4438,-432 4274.75,-414.68 3130.08,-388.34 2797.44,-380.97"/>
<polygon fill="black" stroke="black" points="2797.55,-377.47 2787.47,-380.75 2797.39,-384.47 2797.55,-377.47"/>
</g>
<!-- :screen:transactions&#45;&gt;:temp:old&#45;design -->
<g id="edge161" class="edge">
<title>:screen:transactions&#45;&gt;:temp:old&#45;design</title>
<path fill="none" stroke="black" d="M4471.64,-436.98C4460.5,-435.05 4448.92,-433.28 4438,-432 4134.32,-396.44 4050.91,-455.49 3751,-396 3703.84,-386.65 3695.88,-370.65 3649,-360 3507.97,-327.97 3339.68,-315.15 3240.96,-310.12"/>
<polygon fill="black" stroke="black" points="3241.24,-306.63 3231.08,-309.64 3240.89,-313.62 3241.24,-306.63"/>
</g>
<!-- :screen:transactions&#45;&gt;:shared:ui:core -->
<g id="edge158" class="edge">
<title>:screen:transactions&#45;&gt;:shared:ui:core</title>
<path fill="none" stroke="black" d="M4490.87,-433.79C4398.07,-399.51 4160.76,-316.96 3954,-288 3708.88,-253.66 2943.9,-239.72 2697.97,-236.05"/>
<polygon fill="black" stroke="black" points="2698.22,-232.55 2688.17,-235.9 2698.12,-239.55 2698.22,-232.55"/>
</g>
<!-- :shared:data&#45;&gt;:shared:base -->
<g id="edge162" class="edge">
<title>:shared:data&#45;&gt;:shared:base</title>
<path fill="none" stroke="red" stroke-width="2" d="M4096.49,-83.77C4057.27,-80.03 4002.32,-75.11 3954,-72 3495.45,-42.45 2942.57,-25.89 2752.78,-20.75"/>
<polygon fill="red" stroke="red" stroke-width="2" points="2754.45,-17.3 2744.36,-20.53 2754.26,-24.29 2754.45,-17.3"/>
</g>
<!-- :shared:domain&#45;&gt;:shared:base -->
<g id="edge163" class="edge">
<title>:shared:domain&#45;&gt;:shared:base</title>
<path fill="none" stroke="black" d="M2473.84,-144.99C2516.97,-119.25 2601.71,-68.69 2649.69,-40.07"/>
<polygon fill="black" stroke="black" points="2651.25,-43.21 2658.04,-35.08 2647.66,-37.2 2651.25,-43.21"/>
</g>
<!-- :shared:domain&#45;&gt;:shared:data -->
<g id="edge164" class="edge">
<title>:shared:domain&#45;&gt;:shared:data</title>
<path fill="none" stroke="red" stroke-width="2" d="M2514.24,-158.23C2787.41,-147 3812.3,-104.85 4083.06,-93.71"/>
<polygon fill="red" stroke="red" stroke-width="2" points="4081.38,-97.28 4091.23,-93.38 4081.09,-90.29 4081.38,-97.28"/>
</g>
<!-- :shared:ui:navigation&#45;&gt;:shared:base -->
<g id="edge165" class="edge">
<title>:shared:ui:navigation&#45;&gt;:shared:base</title>
<path fill="none" stroke="black" d="M2262.48,-287.64C2279.03,-255.36 2318.57,-185.6 2370,-144 2447.24,-81.53 2559.63,-47.09 2627.19,-30.88"/>
<polygon fill="black" stroke="black" points="2627.63,-34.37 2636.57,-28.68 2626.04,-27.55 2627.63,-34.37"/>
</g>
<!-- :shared:ui:navigation&#45;&gt;:shared:domain -->
<g id="edge166" class="edge">
<title>:shared:ui:navigation&#45;&gt;:shared:domain</title>
<path fill="none" stroke="black" d="M2276.9,-288.15C2311.47,-262.72 2377.07,-214.45 2415.93,-185.86"/>
<polygon fill="black" stroke="black" points="2417.53,-189.03 2423.51,-180.28 2413.38,-183.39 2417.53,-189.03"/>
</g>
<!-- :shared:ui:navigation&#45;&gt;:shared:ui:core -->
<g id="edge167" class="edge">
<title>:shared:ui:navigation&#45;&gt;:shared:ui:core</title>
<path fill="none" stroke="red" stroke-width="2" d="M2317.09,-292.97C2384.12,-280.18 2489.54,-260.08 2556.94,-247.22"/>
<polygon fill="red" stroke="red" stroke-width="2" points="2556.1,-250.94 2565.26,-245.63 2554.79,-244.07 2556.1,-250.94"/>
</g>
<!-- :temp:legacy&#45;code&#45;&gt;:shared:base -->
<g id="edge168" class="edge">
<title>:temp:legacy&#45;code&#45;&gt;:shared:base</title>
<path fill="none" stroke="black" d="M2719.02,-359.99C2736.01,-334.23 2765,-283.2 2765,-235 2765,-235 2765,-235 2765,-161 2765,-115.24 2733.08,-70.63 2709.56,-43.97"/>
<polygon fill="black" stroke="black" points="2712.31,-41.8 2702.99,-36.77 2707.14,-46.51 2712.31,-41.8"/>
</g>
<!-- :temp:legacy&#45;code&#45;&gt;:shared:data -->
<g id="edge169" class="edge">
<title>:temp:legacy&#45;code&#45;&gt;:shared:data</title>
<path fill="none" stroke="black" d="M2755.28,-363.31C2825.08,-343.98 2958.49,-308.72 3074,-288 3478.36,-215.46 3601.58,-307.83 3992,-180 4004.82,-175.8 4071.43,-136.98 4113.66,-112.02"/>
<polygon fill="black" stroke="black" points="4115.19,-115.18 4122.01,-107.08 4111.62,-109.16 4115.19,-115.18"/>
</g>
<!-- :temp:legacy&#45;code&#45;&gt;:shared:domain -->
<g id="edge170" class="edge">
<title>:temp:legacy&#45;code&#45;&gt;:shared:domain</title>
<path fill="none" stroke="black" d="M2630.5,-372.93C2590.06,-367.08 2542.08,-353.74 2509,-324 2470.38,-289.27 2455.63,-227.73 2450.14,-191.62"/>
<polygon fill="black" stroke="black" points="2453.63,-191.36 2448.81,-181.93 2446.7,-192.31 2453.63,-191.36"/>
</g>
<!-- :temp:legacy&#45;code&#45;&gt;:shared:ui:navigation -->
<g id="edge172" class="edge">
<title>:temp:legacy&#45;code&#45;&gt;:shared:ui:navigation</title>
<path fill="none" stroke="red" stroke-width="2" d="M2646.87,-365.83C2635.63,-363.82 2623.96,-361.8 2613,-360 2518.73,-344.52 2410.18,-328.78 2337.34,-318.53"/>
<polygon fill="red" stroke="red" stroke-width="2" points="2339.35,-315.27 2328.96,-317.35 2338.38,-322.21 2339.35,-315.27"/>
</g>
<!-- :temp:legacy&#45;code&#45;&gt;:temp:old&#45;design -->
<g id="edge173" class="edge">
<title>:temp:legacy&#45;code&#45;&gt;:temp:old&#45;design</title>
<path fill="none" stroke="black" d="M2771,-367.05C2853.9,-354.15 2998.05,-331.73 3084.78,-318.23"/>
<polygon fill="black" stroke="black" points="3085.27,-321.7 3094.61,-316.7 3084.19,-314.78 3085.27,-321.7"/>
</g>
<!-- :temp:legacy&#45;code&#45;&gt;:shared:ui:core -->
<g id="edge171" class="edge">
<title>:temp:legacy&#45;code&#45;&gt;:shared:ui:core</title>
<path fill="none" stroke="black" d="M2712.02,-359.68C2716.46,-340.78 2720.49,-310.23 2708,-288 2699.7,-273.22 2685.41,-262.07 2670.78,-253.92"/>
<polygon fill="black" stroke="black" points="2672.52,-250.87 2662.02,-249.43 2669.33,-257.1 2672.52,-250.87"/>
</g>
<!-- :temp:old&#45;design&#45;&gt;:shared:base -->
<g id="edge174" class="edge">
<title>:temp:old&#45;design&#45;&gt;:shared:base</title>
<path fill="none" stroke="black" d="M3230.44,-303.56C3376.71,-299.93 3693.24,-287.96 3726,-252 3779.88,-192.87 3781.11,-129.99 3726,-72 3692.44,-36.68 2978.49,-23.28 2752.77,-19.91"/>
<polygon fill="black" stroke="black" points="2753.01,-16.42 2742.96,-19.77 2752.91,-23.41 2753.01,-16.42"/>
</g>
<!-- :temp:old&#45;design&#45;&gt;:shared:domain -->
<g id="edge176" class="edge">
<title>:temp:old&#45;design&#45;&gt;:shared:domain</title>
<path fill="none" stroke="black" d="M3101.29,-293.86C2971.4,-267.88 2649.07,-203.41 2511.21,-175.84"/>
<polygon fill="black" stroke="black" points="2512.01,-172.43 2501.51,-173.9 2510.63,-179.3 2512.01,-172.43"/>
</g>
<!-- :temp:old&#45;design&#45;&gt;:shared:ui:core -->
<g id="edge175" class="edge">
<title>:temp:old&#45;design&#45;&gt;:shared:ui:core</title>
<path fill="none" stroke="black" d="M3098.64,-294.6C3085,-292.3 3070.51,-289.97 3057,-288 2929,-269.35 2779.2,-252.15 2692.68,-242.66"/>
<polygon fill="black" stroke="black" points="2693.25,-239.2 2682.93,-241.59 2692.49,-246.16 2693.25,-239.2"/>
</g>
<!-- :widget:add&#45;transaction&#45;&gt;:shared:base -->
<g id="edge177" class="edge">
<title>:widget:add&#45;transaction&#45;&gt;:shared:base</title>
<path fill="none" stroke="black" d="M1343.98,-360.32C1331.07,-351.08 1316.42,-338.53 1307,-324 1245.89,-229.72 1209.07,-152.94 1287,-72 1333.58,-23.62 2343.4,-19.28 2617.1,-18.99"/>
<polygon fill="black" stroke="black" points="2616.92,-22.49 2626.92,-18.98 2616.91,-15.49 2616.92,-22.49"/>
</g>
<!-- :widget:add&#45;transaction&#45;&gt;:shared:domain -->
<g id="edge178" class="edge">
<title>:widget:add&#45;transaction&#45;&gt;:shared:domain</title>
<path fill="none" stroke="black" d="M1406.57,-360.83C1481.93,-327.39 1663.97,-250.81 1825,-216 2016.64,-174.57 2248.06,-165.23 2367.32,-163.31"/>
<polygon fill="black" stroke="black" points="2367.05,-166.82 2376.99,-163.17 2366.94,-159.82 2367.05,-166.82"/>
</g>
<!-- :widget:add&#45;transaction&#45;&gt;:shared:ui:navigation -->
<g id="edge180" class="edge">
<title>:widget:add&#45;transaction&#45;&gt;:shared:ui:navigation</title>
<path fill="none" stroke="black" d="M1442.28,-365.28C1455.78,-363.32 1469.8,-361.45 1483,-360 1724.43,-333.42 2009.96,-317.93 2156.49,-311.14"/>
<polygon fill="black" stroke="black" points="2156.31,-314.65 2166.14,-310.69 2155.99,-307.66 2156.31,-314.65"/>
</g>
<!-- :widget:add&#45;transaction&#45;&gt;:shared:ui:core -->
<g id="edge179" class="edge">
<title>:widget:add&#45;transaction&#45;&gt;:shared:ui:core</title>
<path fill="none" stroke="black" d="M1435.58,-364.16C1535.11,-344.83 1732.18,-308.34 1901,-288 2134.97,-259.81 2413.64,-244.44 2545.15,-238.26"/>
<polygon fill="black" stroke="black" points="2544.93,-241.78 2554.75,-237.82 2544.6,-234.78 2544.93,-241.78"/>
</g>
<!-- :widget:shared&#45;base -->
<g id="node32" class="node">
<title>:widget:shared&#45;base</title>
<ellipse fill="none" stroke="black" cx="1092" cy="-234" rx="84.62" ry="18"/>
<text text-anchor="middle" x="1092" y="-228.95" font-family="Times,serif" font-size="14.00">:widget:shared&#45;base</text>
</g>
<!-- :widget:add&#45;transaction&#45;&gt;:widget:shared&#45;base -->
<g id="edge181" class="edge">
<title>:widget:add&#45;transaction&#45;&gt;:widget:shared&#45;base</title>
<path fill="none" stroke="black" d="M1338.72,-360.57C1287.95,-334.73 1189.46,-284.6 1133.49,-256.12"/>
<polygon fill="black" stroke="black" points="1135.41,-253.17 1124.91,-251.75 1132.23,-259.4 1135.41,-253.17"/>
</g>
<!-- :widget:balance&#45;&gt;:shared:base -->
<g id="edge182" class="edge">
<title>:widget:balance&#45;&gt;:shared:base</title>
<path fill="none" stroke="black" d="M995.53,-448.6C797.62,-446.96 240.65,-438.56 171,-396 100.1,-352.68 76,-318.08 76,-235 76,-235 76,-235 76,-161 76,-120.03 67.73,-97.25 100,-72 151.02,-32.08 2213.14,-21.05 2616.85,-19.28"/>
<polygon fill="black" stroke="black" points="2616.81,-22.78 2626.79,-19.23 2616.78,-15.78 2616.81,-22.78"/>
</g>
<!-- :widget:balance&#45;&gt;:shared:domain -->
<g id="edge183" class="edge">
<title>:widget:balance&#45;&gt;:shared:domain</title>
<path fill="none" stroke="black" d="M1050.7,-432.03C1016.72,-389.62 938.26,-277.97 998,-216 1021.95,-191.16 2068.24,-169.98 2367.7,-164.42"/>
<polygon fill="black" stroke="black" points="2367.43,-167.93 2377.36,-164.24 2367.3,-160.93 2367.43,-167.93"/>
</g>
<!-- :widget:balance&#45;&gt;:shared:ui:navigation -->
<g id="edge185" class="edge">
<title>:widget:balance&#45;&gt;:shared:ui:navigation</title>
<path fill="none" stroke="black" d="M1129.06,-442.78C1237.07,-431.99 1446.75,-409.67 1478,-396 1500.84,-386.01 1497.9,-369.35 1521,-360 1550.03,-348.25 1965.79,-323.34 2157.92,-312.38"/>
<polygon fill="black" stroke="black" points="2158.12,-315.87 2167.9,-311.81 2157.72,-308.88 2158.12,-315.87"/>
</g>
<!-- :widget:balance&#45;&gt;:temp:legacy&#45;code -->
<g id="edge188" class="edge">
<title>:widget:balance&#45;&gt;:temp:legacy&#45;code</title>
<path fill="none" stroke="red" stroke-width="2" d="M1128.7,-442.73C1167.49,-439.12 1218.06,-434.75 1263,-432 1774.56,-400.67 2389.28,-385.59 2616.7,-380.78"/>
<polygon fill="red" stroke="red" stroke-width="2" points="2614.94,-384.32 2624.86,-380.61 2614.79,-377.32 2614.94,-384.32"/>
</g>
<!-- :widget:balance&#45;&gt;:temp:old&#45;design -->
<g id="edge186" class="edge">
<title>:widget:balance&#45;&gt;:temp:old&#45;design</title>
<path fill="none" stroke="black" d="M1127.49,-441.83C1214.26,-431.83 1376.11,-413 1514,-396 1638.53,-380.65 1668.97,-370.45 1794,-360 1810,-358.66 2778.01,-321.52 3072.76,-310.23"/>
<polygon fill="black" stroke="black" points="3072.83,-313.73 3082.69,-309.85 3072.57,-306.73 3072.83,-313.73"/>
</g>
<!-- :widget:balance&#45;&gt;:shared:ui:core -->
<g id="edge184" class="edge">
<title>:widget:balance&#45;&gt;:shared:ui:core</title>
<path fill="none" stroke="black" d="M1069.99,-431.72C1076.92,-411.03 1091.59,-377.05 1117,-360 1212.42,-295.99 1260.65,-348.08 1373,-324 1429.11,-311.97 1440.39,-297.42 1497,-288 1699.1,-254.38 2324.56,-240.27 2543.98,-236.27"/>
<polygon fill="black" stroke="black" points="2543.91,-239.77 2553.85,-236.1 2543.78,-232.78 2543.91,-239.77"/>
</g>
<!-- :widget:balance&#45;&gt;:widget:shared&#45;base -->
<g id="edge187" class="edge">
<title>:widget:balance&#45;&gt;:widget:shared&#45;base</title>
<path fill="none" stroke="black" d="M1055.05,-431.98C1049.73,-421.89 1043.73,-408.64 1041,-396 1037.62,-380.36 1037.92,-375.7 1041,-360 1047.92,-324.74 1064.84,-286.88 1077.3,-262.18"/>
<polygon fill="black" stroke="black" points="1080.32,-263.97 1081.8,-253.48 1074.1,-260.75 1080.32,-263.97"/>
</g>
<!-- :shared:ui:core&#45;&gt;:shared:domain -->
<g id="edge189" class="edge">
<title>:shared:ui:core&#45;&gt;:shared:domain</title>
<path fill="none" stroke="red" stroke-width="2" d="M2584.95,-218.5C2558.56,-207.88 2522.51,-193.38 2493.88,-181.86"/>
<polygon fill="red" stroke="red" stroke-width="2" points="2496.7,-179.22 2486.11,-178.74 2494.09,-185.71 2496.7,-179.22"/>
</g>
<!-- :screen:accounts&#45;&gt;:shared:base -->
<g id="edge190" class="edge">
<title>:screen:accounts&#45;&gt;:shared:base</title>
<path fill="none" stroke="black" d="M4073.47,-440.84C4096.28,-437.94 4122.3,-434.72 4146,-432 4275.48,-417.13 4719,-437.33 4719,-307 4719,-307 4719,-307 4719,-161 4719,50.73 4461.43,-95.43 4251,-72 3953.96,-38.93 3013.11,-23.58 2752.5,-19.9"/>
<polygon fill="black" stroke="black" points="2752.89,-16.4 2742.84,-19.76 2752.79,-23.4 2752.89,-16.4"/>
</g>
<!-- :screen:accounts&#45;&gt;:shared:data -->
<g id="edge191" class="edge">
<title>:screen:accounts&#45;&gt;:shared:data</title>
<path fill="none" stroke="black" d="M4073.82,-440.91C4096.56,-438.03 4122.43,-434.81 4146,-432 4217.28,-423.52 4412.54,-442.76 4467,-396 4498.08,-369.31 4491,-347.97 4491,-307 4491,-307 4491,-307 4491,-233 4491,-172.16 4304.08,-123.67 4206.62,-102.52"/>
<polygon fill="black" stroke="black" points="4207.47,-99.12 4196.96,-100.45 4206.01,-105.97 4207.47,-99.12"/>
</g>
<!-- :screen:accounts&#45;&gt;:shared:domain -->
<g id="edge192" class="edge">
<title>:screen:accounts&#45;&gt;:shared:domain</title>
<path fill="none" stroke="black" d="M4007.56,-431.62C4003.04,-412.38 3993.52,-381.27 3976,-360 3911.27,-281.43 3866.55,-294.41 3774,-252 3742.2,-237.43 3737.82,-224.95 3704,-216 3590.73,-186.04 2784.34,-169.07 2526.24,-164.36"/>
<polygon fill="black" stroke="black" points="2526.68,-160.87 2516.61,-164.19 2526.55,-167.87 2526.68,-160.87"/>
</g>
<!-- :screen:accounts&#45;&gt;:shared:ui:navigation -->
<g id="edge194" class="edge">
<title>:screen:accounts&#45;&gt;:shared:ui:navigation</title>
<path fill="none" stroke="black" d="M3952.48,-439.17C3935,-436.52 3915.76,-433.86 3898,-432 3630.99,-404 3562.28,-421.32 3295,-396 3171.41,-384.29 3141.54,-372.3 3018,-360 2890.89,-347.34 2524.15,-323.83 2349.13,-312.88"/>
<polygon fill="black" stroke="black" points="2349.6,-309.41 2339.4,-312.28 2349.16,-316.39 2349.6,-309.41"/>
</g>
<!-- :screen:accounts&#45;&gt;:temp:legacy&#45;code -->
<g id="edge195" class="edge">
<title>:screen:accounts&#45;&gt;:temp:legacy&#45;code</title>
<path fill="none" stroke="black" d="M3952.79,-439.04C3935.23,-436.36 3915.87,-433.73 3898,-432 3530.03,-396.45 3436.3,-412.72 3067,-396 2974.44,-391.81 2868.51,-386.78 2795.65,-383.28"/>
<polygon fill="black" stroke="black" points="2795.91,-379.79 2785.76,-382.81 2795.58,-386.78 2795.91,-379.79"/>
</g>
<!-- :screen:accounts&#45;&gt;:temp:old&#45;design -->
<g id="edge196" class="edge">
<title>:screen:accounts&#45;&gt;:temp:old&#45;design</title>
<path fill="none" stroke="black" d="M3951.54,-439.57C3934.29,-436.96 3915.41,-434.24 3898,-432 3748.6,-412.79 3708.05,-428.63 3561,-396 3512.84,-385.31 3503.76,-372.34 3456,-360 3380.68,-340.54 3292.84,-325.9 3231.95,-317"/>
<polygon fill="black" stroke="black" points="3232.8,-313.58 3222.4,-315.62 3231.8,-320.51 3232.8,-313.58"/>
</g>
<!-- :screen:accounts&#45;&gt;:shared:ui:core -->
<g id="edge193" class="edge">
<title>:screen:accounts&#45;&gt;:shared:ui:core</title>
<path fill="none" stroke="black" d="M4005.8,-431.75C3998.61,-411.09 3983.54,-377.13 3958,-360 3868.07,-299.66 3821.31,-353.13 3717,-324 3677.09,-312.85 3671.4,-297.22 3631,-288 3453.84,-247.56 2902.91,-237.87 2698.42,-235.64"/>
<polygon fill="black" stroke="black" points="2698.46,-232.14 2688.42,-235.53 2698.39,-239.14 2698.46,-232.14"/>
</g>
<!-- :widget:shared&#45;base&#45;&gt;:shared:base -->
<g id="edge197" class="edge">
<title>:widget:shared&#45;base&#45;&gt;:shared:base</title>
<path fill="none" stroke="black" d="M1102.3,-215.73C1124.18,-180.92 1179.05,-103.02 1249,-72 1374.7,-16.25 2348.97,-17.22 2616.97,-18.56"/>
<polygon fill="black" stroke="black" points="2616.92,-22.06 2626.93,-18.61 2616.95,-15.06 2616.92,-22.06"/>
</g>
<!-- :widget:shared&#45;base&#45;&gt;:shared:domain -->
<g id="edge198" class="edge">
<title>:widget:shared&#45;base&#45;&gt;:shared:domain</title>
<path fill="none" stroke="black" d="M1153.35,-221.21C1165.77,-219.18 1178.77,-217.3 1191,-216 1633.54,-168.86 2167.99,-163.19 2367.14,-162.84"/>
<polygon fill="black" stroke="black" points="2366.85,-166.34 2376.84,-162.82 2366.84,-159.34 2366.85,-166.34"/>
</g>
<!-- :ci&#45;actions:compose&#45;stability -->
<g id="node33" class="node">
<title>:ci&#45;actions:compose&#45;stability</title>
<ellipse fill="none" stroke="black" cx="5153" cy="-594" rx="117.89" ry="18"/>
<text text-anchor="middle" x="5153" y="-588.95" font-family="Times,serif" font-size="14.00">:ci&#45;actions:compose&#45;stability</text>
</g>
<!-- :ci&#45;actions:base -->
<g id="node34" class="node">
<title>:ci&#45;actions:base</title>
<ellipse fill="none" stroke="black" cx="5385" cy="-522" rx="68.24" ry="18"/>
<text text-anchor="middle" x="5385" y="-516.95" font-family="Times,serif" font-size="14.00">:ci&#45;actions:base</text>
</g>
<!-- :ci&#45;actions:compose&#45;stability&#45;&gt;:ci&#45;actions:base -->
<g id="edge199" class="edge">
<title>:ci&#45;actions:compose&#45;stability&#45;&gt;:ci&#45;actions:base</title>
<path fill="none" stroke="black" d="M5204.78,-577.38C5242.09,-566.12 5292.35,-550.95 5330.32,-539.5"/>
<polygon fill="black" stroke="black" points="5331.17,-542.9 5339.73,-536.66 5329.14,-536.2 5331.17,-542.9"/>
</g>
<!-- :ci&#45;actions:issue&#45;assign -->
<g id="node35" class="node">
<title>:ci&#45;actions:issue&#45;assign</title>
<ellipse fill="none" stroke="black" cx="5385" cy="-594" rx="96.39" ry="18"/>
<text text-anchor="middle" x="5385" y="-588.95" font-family="Times,serif" font-size="14.00">:ci&#45;actions:issue&#45;assign</text>
</g>
<!-- :ci&#45;actions:issue&#45;assign&#45;&gt;:ci&#45;actions:base -->
<g id="edge200" class="edge">
<title>:ci&#45;actions:issue&#45;assign&#45;&gt;:ci&#45;actions:base</title>
<path fill="none" stroke="black" d="M5385,-575.7C5385,-568.41 5385,-559.73 5385,-551.54"/>
<polygon fill="black" stroke="black" points="5388.5,-551.62 5385,-541.62 5381.5,-551.62 5388.5,-551.62"/>
</g>
<!-- :ci&#45;actions:issue&#45;create&#45;comment -->
<g id="node36" class="node">
<title>:ci&#45;actions:issue&#45;create&#45;comment</title>
<ellipse fill="none" stroke="black" cx="5633" cy="-594" rx="133.75" ry="18"/>
<text text-anchor="middle" x="5633" y="-588.95" font-family="Times,serif" font-size="14.00">:ci&#45;actions:issue&#45;create&#45;comment</text>
</g>
<!-- :ci&#45;actions:issue&#45;create&#45;comment&#45;&gt;:ci&#45;actions:base -->
<g id="edge201" class="edge">
<title>:ci&#45;actions:issue&#45;create&#45;comment&#45;&gt;:ci&#45;actions:base</title>
<path fill="none" stroke="black" d="M5577.03,-577.2C5536.55,-565.78 5482.06,-550.4 5441.47,-538.94"/>
<polygon fill="black" stroke="black" points="5442.44,-535.58 5431.86,-536.23 5440.54,-542.31 5442.44,-535.58"/>
</g>
<!-- :shared:ui:testing -->
<g id="node37" class="node">
<title>:shared:ui:testing</title>
<ellipse fill="none" stroke="black" cx="2625" cy="-306" rx="74.38" ry="18"/>
<text text-anchor="middle" x="2625" y="-300.95" font-family="Times,serif" font-size="14.00">:shared:ui:testing</text>
</g>
<!-- :shared:ui:testing&#45;&gt;:shared:ui:core -->
<g id="edge202" class="edge">
<title>:shared:ui:testing&#45;&gt;:shared:ui:core</title>
<path fill="none" stroke="black" d="M2624.01,-287.7C2623.59,-280.41 2623.1,-271.73 2622.63,-263.54"/>
<polygon fill="black" stroke="black" points="2626.13,-263.4 2622.06,-253.62 2619.14,-263.8 2626.13,-263.4"/>
</g>
</g>
</svg>
